<svg xmlns="http://www.w3.org/2000/svg" width="99.999" height="99.999" viewBox="0 0 99.999 99.999">
  <g id="Grupo_1116904" data-name="Grupo 1116904" transform="translate(-593.051 -5497)">
    <g id="a2" transform="translate(598.051 5502)" fill="#fff" stroke="#ffce79" stroke-linejoin="round" stroke-width="5">
      <circle cx="44.999" cy="44.999" r="44.999" stroke="none"/>
      <circle cx="44.999" cy="44.999" r="47.499" fill="none"/>
    </g>
    <g id="Layer_2" data-name="Layer 2" transform="translate(618.051 5531)">
      <g id="Measuring_tape" data-name="Measuring tape" transform="translate(0 0)">
        <path id="Trazado_909698" data-name="Trazado 909698" d="M31.89,16.848V9.122a6.286,6.286,0,0,0-1.7-4.165C27.589,1.993,22.248,0,15.945,0S4.3,1.993,1.7,4.957A6.286,6.286,0,0,0,0,9.122V22.257A6.286,6.286,0,0,0,1.7,26.4a11.022,11.022,0,0,0,2.658,2.164c.187.119,1.635.852,2.2,1.09a25.017,25.017,0,0,0,9.37,1.7H50.4V16.848ZM15.076,1.7h1.7c7.334.238,13.373,3.535,13.373,7.4,0,2.223-1.993,4.259-5.111,5.63a18.577,18.577,0,0,1-2.649.937,24.386,24.386,0,0,1-6.508,1.158A24.327,24.327,0,0,1,9.37,15.673a19.276,19.276,0,0,1-2.555-.92C3.731,13.381,1.7,11.346,1.7,9.122,1.7,5.255,7.734,1.959,15.076,1.7Zm15.11,11.584v3.56H24.523c.2-.068,1.968-.852,2.555-1.158a11.363,11.363,0,0,0,3.109-2.4ZM48.7,29.676H46.95V26.337h-1.7v3.339h-1.7V26.337h-1.7v3.339h-1.7V26.337h-1.7v3.339h-1.7V26.337h-1.7v3.339h-1.7V23.782h-1.7v5.894h-1.7V26.337h-1.7v3.339h-1.7V26.337H24.8v3.339H23.1V26.337H21.4v3.339h-1.7V26.337h-1.7v3.339h-1.7V23.782h-1.7v5.852a13.928,13.928,0,0,1-1.7-.136v-3.16h-1.7v2.9c-.588-.111-1.158-.247-1.7-.4V25.485h-1.7v2.8a14.863,14.863,0,0,1-1.7-.741V24.633h-1.7v1.874C2.692,25.3,1.7,23.85,1.7,22.257V13.288a11.32,11.32,0,0,0,3.075,2.4c.613.349,2.385,1.09,2.555,1.158a25.426,25.426,0,0,0,8.586,1.7H48.7Z" transform="translate(0 0)"/>
        <path id="Trazado_909699" data-name="Trazado 909699" d="M17.11,2h-1.7C8.031,2.256,2,5.552,2,9.419c0,2.223,1.993,4.259,5.111,5.63a19.275,19.275,0,0,0,2.649.937,24.327,24.327,0,0,0,6.516,1.158,24.386,24.386,0,0,0,6.508-1.158,18.577,18.577,0,0,0,2.649-.937c3.092-1.371,5.111-3.407,5.111-5.63C30.483,5.552,24.444,2.256,17.11,2Zm-.852,11.158c-3.85,0-6.865-1.831-6.865-4.157,0-2.129,2.555-3.859,5.962-4.1a7.24,7.24,0,0,1,.852,0,7.24,7.24,0,0,1,.852,0c3.407.238,5.962,1.968,5.962,4.1.077,2.368-2.939,4.174-6.78,4.174Z" transform="translate(-0.296 -0.296)" fill="#f8da58"/>
        <path id="Trazado_909700" data-name="Trazado 909700" d="M48.992,20.864V31.988H47.246V28.649h-1.7v3.339h-1.7V28.649h-1.7v3.339h-1.7V28.649h-1.7v3.339h-1.7V28.649h-1.7v3.339h-1.7V26.094h-1.7v5.894h-1.7V28.649h-1.7v3.339H26.8V28.649H25.1v3.339H23.4V28.649h-1.7v3.339h-1.7V28.649h-1.7v3.339h-1.7V26.094h-1.7v5.852a13.927,13.927,0,0,1-1.7-.136v-3.16h-1.7v2.9c-.588-.111-1.158-.247-1.7-.4V27.8h-1.7v2.8a14.863,14.863,0,0,1-1.7-.741V26.946h-1.7V28.82C2.988,27.61,2,26.162,2,24.569V15.6A11.32,11.32,0,0,0,5.075,18c.613.349,2.385,1.09,2.555,1.158a25.426,25.426,0,0,0,8.586,1.7Z" transform="translate(-0.296 -2.312)" fill="#f8da58"/>
        <path id="Trazado_909701" data-name="Trazado 909701" d="M34.454,15.6v3.56H28.79c.2-.068,1.968-.852,2.555-1.158a11.363,11.363,0,0,0,3.109-2.4Z" transform="translate(-4.267 -2.312)" fill="#e1ab7c"/>
        <path id="Trazado_909702" data-name="Trazado 909702" d="M18.406,5.428a7.24,7.24,0,0,0-.852,0,7.24,7.24,0,0,0-.852,0C13.3,5.666,10.74,7.4,10.74,9.525c0,2.325,3.015,4.157,6.865,4.157s6.857-1.831,6.857-4.157c-.068-2.129-2.64-3.859-6.056-4.1Zm-.852,6.55c-3.041,0-5.162-1.286-5.162-2.453s2.121-2.436,5.162-2.436,5.153,1.286,5.153,2.436-2.138,2.453-5.17,2.453Z" transform="translate(-1.592 -0.803)"/>
        <path id="Trazado_909703" data-name="Trazado 909703" d="M22.975,9.816c0,1.167-2.121,2.453-5.153,2.453S12.66,10.983,12.66,9.816,14.781,7.38,17.822,7.38,22.975,8.666,22.975,9.816Z" transform="translate(-1.877 -1.094)" fill="#e1ab7c"/>
      </g>
    </g>
  </g>
</svg>
