<svg xmlns="http://www.w3.org/2000/svg" width="82" height="82" viewBox="0 0 82 82">
  <g id="Grupo_1116924" data-name="Grupo 1116924" transform="translate(7007 8096.001)">
    <g id="Grupo_1116528" data-name="Grupo 1116528" transform="translate(-7017.151 -8106.059)">
      <g id="Elipse_157" data-name="Elipse 157" transform="translate(15.151 15.059)" fill="#fff" stroke="#ffce79" stroke-linejoin="round" stroke-width="5">
        <circle cx="36" cy="36" r="36" stroke="none"/>
        <circle cx="36" cy="36" r="38.5" fill="none"/>
      </g>
    </g>
    <g id="filled_outline_copy" data-name="filled outline copy" transform="translate(-7011.739 -8092.695)">
      <path id="Trazado_909807" data-name="Trazado 909807" d="M457.388,343.32a17.259,17.259,0,0,0,1.061,2.785,17.385,17.385,0,0,1-2.13,1.523,6.568,6.568,0,0,0-2.7-3.277c.331-.051.66-.111.985-.181A17.163,17.163,0,0,0,457.388,343.32Z" transform="translate(-390.768 -297.724)" fill="#fdd835"/>
      <g id="Grupo_1116923" data-name="Grupo 1116923" transform="translate(44.981 34.805)">
        <path id="Trazado_909808" data-name="Trazado 909808" d="M259.5,267.883a2.153,2.153,0,0,1-.683.357h0a2.17,2.17,0,1,1,0-4.144,2.166,2.166,0,0,0,.877.526,2.17,2.17,0,0,1,0,3.091A2.142,2.142,0,0,1,259.5,267.883Z" transform="translate(-255.999 -260.381)" fill="#7e57c2"/>
        <path id="Trazado_909809" data-name="Trazado 909809" d="M283.684,304.625c.033.033.063.065.093.1a2.161,2.161,0,0,1,.553,1.447,2.015,2.015,0,0,1-.02.288,2.17,2.17,0,1,1-3.767-1.734c.03-.033.061-.066.093-.1h0a2.184,2.184,0,0,0,.875-.525,2.17,2.17,0,0,1,1.293,0,2.163,2.163,0,0,0,.876.526Z" transform="translate(-277.819 -296.765)" fill="#7e57c2"/>
        <path id="Trazado_909810" data-name="Trazado 909810" d="M331.787,304.724a2.169,2.169,0,0,1,0,2.9,6.341,6.341,0,0,0-1.038.128,6.438,6.438,0,0,0-1.358.442,2.168,2.168,0,0,1-1.364-1.711,2.081,2.081,0,0,1-.023-.312,2.16,2.16,0,0,1,.553-1.447c.03-.033.061-.066.093-.1a2.169,2.169,0,0,0,.876-.526h0a2.17,2.17,0,0,1,1.293,0h0a2.163,2.163,0,0,1,.876.526C331.727,304.658,331.757,304.69,331.787,304.724Z" transform="translate(-321.489 -296.765)" fill="#7e57c2"/>
        <path id="Trazado_909811" data-name="Trazado 909811" d="M307.692,264.625a2.17,2.17,0,0,1,0,3.091h0a2.169,2.169,0,0,1-2.169.526h0a2.17,2.17,0,0,1-.876-3.617,2.166,2.166,0,0,0,.877-.526,2.17,2.17,0,0,1,1.293,0h0A2.169,2.169,0,0,0,307.692,264.625Z" transform="translate(-299.657 -260.383)" fill="#7e57c2"/>
        <path id="Trazado_909812" data-name="Trazado 909812" d="M394.143,270.91a2.168,2.168,0,0,0-.647,1.546,2.168,2.168,0,0,0-.647-1.546,2.171,2.171,0,0,0,1.293,0Z" transform="translate(-380.474 -266.668)" fill="#7e57c2"/>
        <path id="Trazado_909813" data-name="Trazado 909813" d="M402.17,264a2.17,2.17,0,1,1-1.523,3.716h0A2.17,2.17,0,0,1,402.17,264Z" transform="translate(-386.977 -260.382)" fill="#7e57c2"/>
        <path id="Trazado_909814" data-name="Trazado 909814" d="M380.34,226.168a2.168,2.168,0,0,1-.647,1.546,2.166,2.166,0,0,0-.877.526,2.168,2.168,0,0,1-2.17-.526h0a2.17,2.17,0,1,1,3.694-1.546Z" transform="translate(-365.147 -223.998)" fill="#7e57c2"/>
        <path id="Trazado_909815" data-name="Trazado 909815" d="M381.689,304.1h0a2.17,2.17,0,0,1,1.293,0h0a2.17,2.17,0,0,0,.876.526c.033.033.063.065.093.1a2.168,2.168,0,0,1,0,2.9l-.185,0a6.48,6.48,0,0,0-1.17.109,4.256,4.256,0,0,1-.793.07c-.121,0-.242-.006-.364-.018a12.321,12.321,0,0,0-.859-2.88,1.825,1.825,0,0,1,.139-.174c.03-.033.061-.066.093-.1A2.17,2.17,0,0,0,381.689,304.1Z" transform="translate(-369.314 -296.765)" fill="#7e57c2"/>
        <path id="Trazado_909816" data-name="Trazado 909816" d="M284.318,226.169a2.171,2.171,0,1,1-.463-1.339,2.171,2.171,0,0,1,.463,1.339Z" transform="translate(-277.807 -223.998)" fill="#7e57c2"/>
        <path id="Trazado_909817" data-name="Trazado 909817" d="M357.965,264.1a2.17,2.17,0,0,0,.876.526,2.17,2.17,0,0,1,0,3.091h0a2.17,2.17,0,0,1-.876.526,2.109,2.109,0,0,1-.322.074,12.29,12.29,0,0,0-2.182-3.267,2.139,2.139,0,0,1,.334-.424,2.166,2.166,0,0,0,.877-.526,2.17,2.17,0,0,1,1.293,0Z" transform="translate(-346.465 -260.383)" fill="#7e57c2"/>
        <path id="Trazado_909818" data-name="Trazado 909818" d="M332.34,226.168a2.17,2.17,0,0,1-3.693,1.546h0a2.17,2.17,0,1,1,3.694-1.546Z" transform="translate(-321.488 -223.998)" fill="#7e57c2"/>
      </g>
      <path id="Trazado_909819" data-name="Trazado 909819" d="M219.617,136a3.617,3.617,0,1,1-1.656,6.834,17.363,17.363,0,0,1-.487-3.217q-.726.123-1.47.184c0-.061,0-.123,0-.184A3.617,3.617,0,0,1,219.617,136Z" transform="translate(-174.637 -109.153)" fill="#fbc02d"/>
      <path id="Trazado_909820" data-name="Trazado 909820" d="M184.116,37.728a7.925,7.925,0,0,1-1.91,5.172,2.17,2.17,0,0,0-3.6,2.4,7.887,7.887,0,0,1-2.139.378,17.172,17.172,0,0,1-1.966-4.735,3.617,3.617,0,1,0-1.962-3.217c0,.061,0,.123,0,.184-.478.041-.963.061-1.451.061-.059,0-.118,0-.176,0-.038.149-.075.3-.109.451a6.482,6.482,0,0,0-2.589-1.253,7.922,7.922,0,0,1,2.072-4.819,5.708,5.708,0,0,0,1.527-3.952c0-.025,0-.051,0-.076a4.341,4.341,0,0,1,8.675-.236q.008.159.005.315a5.511,5.511,0,0,0,1.466,3.884A7.929,7.929,0,0,1,184.116,37.728Z" transform="translate(-131.178 -7.264)" fill="#43a047"/>
      <path id="Trazado_909821" data-name="Trazado 909821" d="M282.526,59.923a.362.362,0,0,1-.307-.552,6.511,6.511,0,0,0-.784-7.882,6.931,6.931,0,0,1-1.857-4.9c0-.071,0-.143,0-.214a2.886,2.886,0,0,0-.74-1.769.362.362,0,1,1,.538-.484,3.611,3.611,0,0,1,.925,2.215c0,.088.006.176,0,.264a6.212,6.212,0,0,0,1.661,4.391h0a7.235,7.235,0,0,1,.871,8.758A.362.362,0,0,1,282.526,59.923Zm-1.671-1.45a.362.362,0,0,1-.32-.529,4.333,4.333,0,0,0-.511-4.773.362.362,0,0,1,.556-.463,5.057,5.057,0,0,1,.6,5.571.362.362,0,0,1-.321.194Z" transform="translate(-231.704 -25.476)" fill="#00701a"/>
      <path id="Trazado_909822" data-name="Trazado 909822" d="M154.273,199.379l1.539-1.539a17.5,17.5,0,0,0-.2,2.611c0,.3.007.591.022.883.005.107.012.213.019.319.005.076.011.152.017.228q-.388.018-.781.017a17.482,17.482,0,0,1-2.307-.152c-.035.131-.068.262-.1.394l-.487-.487Z" transform="translate(-116.424 -165.401)" fill="#f57f17"/>
      <path id="Trazado_909823" data-name="Trazado 909823" d="M156.056,169.418q-.146.631-.243,1.281l-1.539,1.539L152,174.511V168A6.475,6.475,0,0,1,156.056,169.418Z" transform="translate(-116.424 -138.259)" fill="#f57f17"/>
      <path id="Trazado_909824" data-name="Trazado 909824" d="M160.362,179.808a.362.362,0,0,1-.362-.362v-3.14l.433.087.148.032a5.716,5.716,0,0,1,1.734.713.362.362,0,1,1-.381.615,4.981,4.981,0,0,0-1.21-.543v2.236A.362.362,0,0,1,160.362,179.808Z" transform="translate(-123.701 -145.814)" fill="#bc5100"/>
      <path id="Trazado_909825" data-name="Trazado 909825" d="M105.694,168v6.511l-4.6-4.6A6.491,6.491,0,0,1,105.694,168Z" transform="translate(-70.118 -138.259)" fill="#f57f17"/>
      <path id="Trazado_909826" data-name="Trazado 909826" d="M115.1,180.617a.361.361,0,0,1-.256-.106l-2.22-2.22.368-.244a5.707,5.707,0,0,1,2.036-.844.362.362,0,0,1,.143.709,4.983,4.983,0,0,0-1.4.506L115.351,180a.362.362,0,0,1-.256.618Z" transform="translate(-80.605 -146.624)" fill="#bc5100"/>
      <path id="Trazado_909827" data-name="Trazado 909827" d="M86.511,193.694H80a6.491,6.491,0,0,1,1.907-4.6Z" transform="translate(-50.936 -157.442)" fill="#f57f17"/>
      <path id="Trazado_909828" data-name="Trazado 909828" d="M91.445,205.535h-3.14l.087-.433a5.707,5.707,0,0,1,.844-2.036.362.362,0,1,1,.6.4,4.985,4.985,0,0,0-.63,1.346h2.236a.362.362,0,1,1,0,.723Z" transform="translate(-58.49 -170.006)" fill="#bc5100"/>
      <path id="Trazado_909829" data-name="Trazado 909829" d="M86.511,240l-4.6,4.6A6.491,6.491,0,0,1,80,240Z" transform="translate(-50.936 -203.748)" fill="#f57f17"/>
      <path id="Trazado_909830" data-name="Trazado 909830" d="M90.291,250.837l-.244-.368a5.706,5.706,0,0,1-.844-2.036.362.362,0,0,1,.709-.143,4.983,4.983,0,0,0,.506,1.4L92,248.105a.362.362,0,0,1,.512.512Z" transform="translate(-59.3 -211.024)" fill="#bc5100"/>
      <path id="Trazado_909831" data-name="Trazado 909831" d="M105.694,240l.487.487a17.385,17.385,0,0,0-.487,4.1,17.565,17.565,0,0,0,.106,1.923c-.035,0-.07,0-.106,0a6.491,6.491,0,0,1-4.6-1.907Z" transform="translate(-70.118 -203.748)" fill="#f57f17"/>
      <path id="Trazado_909832" data-name="Trazado 909832" d="M117.567,267.317l-.45-.09a5.706,5.706,0,0,1-2.052-.847.362.362,0,1,1,.4-.6,4.983,4.983,0,0,0,1.347.63q0-.136,0-.271a19.008,19.008,0,0,1,.119-2.121.362.362,0,0,1,.719.079,18.306,18.306,0,0,0-.115,2.042c0,.238,0,.48.014.721Z" transform="translate(-82.683 -225.299)" fill="#bc5100"/>
      <path id="Trazado_909833" data-name="Trazado 909833" d="M50.5,324.47a17.27,17.27,0,0,0,5.72,2.507,20.291,20.291,0,0,1-6.137.94C40.1,327.916,32,320.79,32,312h2.953a11.36,11.36,0,0,0,4.125,8.508,16.582,16.582,0,0,0,11.009,3.967C50.226,324.475,50.365,324.474,50.5,324.47Z" transform="translate(-7.276 -269.237)" fill="#43a047"/>
      <path id="Trazado_909834" data-name="Trazado 909834" d="M57.816,334.469a18.718,18.718,0,0,1-11.826-4.077,14.48,14.48,0,0,1-5.491-10,.362.362,0,1,1,.721-.06,13.763,13.763,0,0,0,5.227,9.5,17.994,17.994,0,0,0,11.369,3.914,19.37,19.37,0,0,0,2.111-.115.362.362,0,0,1,.078.719A20.086,20.086,0,0,1,57.816,334.469Z" transform="translate(-15.006 -276.513)" fill="#00701a"/>
      <path id="Trazado_909835" data-name="Trazado 909835" d="M72.655,312A17.356,17.356,0,0,0,80.2,324.47c-.138,0-.278.005-.417.005a16.582,16.582,0,0,1-11.009-3.967A11.36,11.36,0,0,1,64.65,312Z" transform="translate(-36.974 -269.237)" fill="#c62828"/>
      <path id="Trazado_909836" data-name="Trazado 909836" d="M140.36,330.68a.541.541,0,0,1-.394-.17,19.058,19.058,0,0,1-4.946-9.876.543.543,0,0,1,1.069-.185,17.976,17.976,0,0,0,4.665,9.316.543.543,0,0,1-.394.915Z" transform="translate(-100.972 -276.512)" fill="#8e0000"/>
      <path id="Trazado_909837" data-name="Trazado 909837" d="M308.846,344.16c.121.012.242.017.364.018a4.256,4.256,0,0,0,.793-.07,6.48,6.48,0,0,1,1.17-.109l.185,0a6.585,6.585,0,0,1,.96.1,6.466,6.466,0,0,1,2.274.871,6.568,6.568,0,0,1,2.7,3.277,6.4,6.4,0,0,1,.408,2.123,6.515,6.515,0,0,1-8.463,6.354,6.509,6.509,0,0,1-4.618-12.148,6.435,6.435,0,0,1,1.358-.442,6.344,6.344,0,0,1,1.038-.128c.095,0,.19-.005.286-.005a6.609,6.609,0,0,1,.883.061h0c.1.014.192.029.287.047A3.781,3.781,0,0,0,308.846,344.16Zm.1.751a.047.047,0,0,1,0,.012h.006A.059.059,0,0,0,308.949,344.911Z" transform="translate(-251.74 -298.343)" fill="#c62828"/>
      <path id="Trazado_909838" data-name="Trazado 909838" d="M310.69,361.865a.543.543,0,0,1-.53-.66,5.84,5.84,0,0,1,3.287-4.036.543.543,0,0,1,.448.989,4.75,4.75,0,0,0-2.675,3.281.542.542,0,0,1-.529.426Z" transform="translate(-260.27 -310.277)" fill="#ff5f52"/>
      <path id="Trazado_909839" data-name="Trazado 909839" d="M347.449,465.207a5.748,5.748,0,0,1-2.183-.426.543.543,0,1,1,.41-1,4.669,4.669,0,0,0,1.773.345.543.543,0,0,1,0,1.085Z" transform="translate(-291.906 -407.251)" fill="#8e0000"/>
      <path id="Trazado_909840" data-name="Trazado 909840" d="M390.895,415.17a5.8,5.8,0,0,1-1.737-.265l-.379-.119a.543.543,0,1,1,.325-1.036l.379.119a4.7,4.7,0,0,0,6.113-4.591.543.543,0,1,1,1.085-.023,5.787,5.787,0,0,1-5.787,5.915Z" transform="translate(-331.445 -357.214)" fill="#8e0000"/>
      <path id="Trazado_909841" data-name="Trazado 909841" d="M399.8,353.18a.543.543,0,0,1-.1-1.076l.014,0a5.8,5.8,0,0,1,1.04-.1l.164,0a5.878,5.878,0,0,1,.853.086.543.543,0,1,1-.188,1.068,4.775,4.775,0,0,0-.689-.07h-.139a4.7,4.7,0,0,0-.846.079l-.015,0A.544.544,0,0,1,399.8,353.18Z" transform="translate(-341.321 -305.624)" fill="#ff5f52"/>
      <path id="Trazado_909842" data-name="Trazado 909842" d="M156.609,245.534a17.1,17.1,0,0,0,.811,1.914,17.426,17.426,0,0,0,8.187,8.012,6.517,6.517,0,0,0,3.9,7.426h-.148a17.361,17.361,0,0,1-17.258-15.442v0a17.57,17.57,0,0,1-.106-1.924,17.385,17.385,0,0,1,.487-4.1c.032-.132.064-.263.1-.394a17.487,17.487,0,0,0,2.307.152q.393,0,.781-.017A17.291,17.291,0,0,0,156.609,245.534Z" transform="translate(-116.424 -204.685)" fill="#fff263"/>
      <path id="Trazado_909843" data-name="Trazado 909843" d="M176.583,270.014a.362.362,0,0,1-.289-.143,7.936,7.936,0,0,1-1.607-4.97c0-.132.009-.266.019-.4a19,19,0,0,1-7.905-8.19,18.666,18.666,0,0,1-1.734-5.47c-.333-.009-.666-.026-1-.052a.362.362,0,1,1,.057-.721c.416.033.839.052,1.257.056l.312,0,.043.309a17.943,17.943,0,0,0,1.71,5.554,18.272,18.272,0,0,0,7.806,7.986l.217.114-.025.243c-.02.194-.032.39-.036.583a7.26,7.26,0,0,0,.3,2.218,7.179,7.179,0,0,0,1.164,2.3.362.362,0,0,1-.288.58Z" transform="translate(-127.1 -212.904)" fill="#fbc02d"/>
      <path id="Trazado_909844" data-name="Trazado 909844" d="M198.1,183.952q.18.3.375.6a2.169,2.169,0,0,0,1.485,3.752h.553a2.17,2.17,0,1,0,3.767,1.735c.014.008.028.017.043.024a2.168,2.168,0,0,0,1.364,1.711,6.564,6.564,0,0,0-3.7,4.542A17.426,17.426,0,0,1,193.8,188.3a17.1,17.1,0,0,1-.811-1.914,17.292,17.292,0,0,1-.934-4.37c-.006-.076-.012-.152-.017-.228-.007-.106-.014-.213-.019-.319-.014-.292-.022-.587-.022-.883a17.509,17.509,0,0,1,.2-2.614c.064-.43.145-.856.243-1.277.033-.152.071-.3.109-.451.059,0,.118,0,.176,0,.488,0,.973-.02,1.451-.061q.745-.061,1.47-.184a17.361,17.361,0,0,0,.487,3.217A17.172,17.172,0,0,0,198.1,183.952Z" transform="translate(-152.807 -145.536)" fill="#fff263"/>
      <path id="Trazado_909845" data-name="Trazado 909845" d="M220.511,203.493a.362.362,0,0,1-.333-.5,7.984,7.984,0,0,1,.687-1.279,3.623,3.623,0,0,1-3.2-3.593c0-.1,0-.2.012-.3a3.615,3.615,0,0,1-1.789-4.959,18.678,18.678,0,0,1-2.383-6.868l-.055,0a.362.362,0,1,1-.059-.721q.2-.016.391-.036l.354-.037.043.353a18.118,18.118,0,0,0,.406,2.206,17.9,17.9,0,0,0,2.031,4.9l.111.184-.109.185a2.892,2.892,0,0,0,1.57,4.205l.291.1-.05.3a2.895,2.895,0,0,0,2.855,3.367c.083,0,.166,0,.248-.011l.838-.072-.524.658a7.286,7.286,0,0,0-1,1.686.362.362,0,0,1-.334.221Z" transform="translate(-171.967 -153.907)" fill="#fbc02d"/>
      <path id="Trazado_909846" data-name="Trazado 909846" d="M234.17,50.17a2.173,2.173,0,0,0,2.17-2.17h-1.447a.723.723,0,0,1-1.447,0H232A2.173,2.173,0,0,0,234.17,50.17Z" transform="translate(-189.19 -29.111)"/>
      <path id="Trazado_909847" data-name="Trazado 909847" d="M104,336h1.447v1.447H104Z" transform="translate(-72.765 -291.066)"/>
      <path id="Trazado_909848" data-name="Trazado 909848" d="M67.316,45.4a.723.723,0,0,0-.965-.474,16.5,16.5,0,0,1-2.666.814c-.23.049-.462.092-.694.131a7.155,7.155,0,0,0-2.222-.813,2.886,2.886,0,0,0,.018-1.636,2.894,2.894,0,0,0,0-5.655,2.893,2.893,0,0,0-4.955-2.7,2.9,2.9,0,0,0-1.416-.883,6.216,6.216,0,0,1,1.8-3.806l.124-.124-1.023-1.023-.124.124a7.7,7.7,0,0,0-1.634,2.407,8.651,8.651,0,0,0-2.249-7.233,4.774,4.774,0,0,1-1.27-3.377c0-.121,0-.243-.006-.365a5.064,5.064,0,0,0-10.121.274c0,.031,0,.062,0,.094A4.972,4.972,0,0,1,38.581,24.6a8.7,8.7,0,0,0-2.168,4.467,7.328,7.328,0,0,0-.838-.048,7.235,7.235,0,0,0-5.116,12.35,7.334,7.334,0,0,0,.775.672H24.724a.723.723,0,0,0-.723.723,15.631,15.631,0,0,0,5.543,11.8A20,20,0,0,0,42.81,59.4a21.011,21.011,0,0,0,6.167-.916,18.157,18.157,0,0,0,3.962.437h.018a7.247,7.247,0,0,0,4.54.211,7.236,7.236,0,0,0,9.186-7.123,7.126,7.126,0,0,0-.268-1.8,18.249,18.249,0,0,0,1.73-1.279.723.723,0,0,0,.188-.87A16.593,16.593,0,0,1,67.316,45.4ZM43.632,54.634A16.608,16.608,0,0,1,36.4,42.695s0-.008,0-.011a16.9,16.9,0,0,1-.1-1.845,16.71,16.71,0,0,1,.414-3.7c.581.056,1.17.084,1.756.084h.13a18.069,18.069,0,0,0,9.778,13.966,7.21,7.21,0,0,0,2.055,6.1q-.666-.1-1.32-.253a16.5,16.5,0,0,1-5.481-2.4ZM38.826,31.465q-.063.314-.115.629L36.3,34.505v-4a5.653,5.653,0,0,1,2.527.954Zm-.341,4.309h-.015c-.447,0-.893-.02-1.337-.055l1.35-1.35q-.013.341-.013.682c0,.241.006.483.015.723Zm-3.633-1.268-2.825-2.825a5.728,5.728,0,0,1,2.825-1.17Zm-1.023,1.023H29.834A5.728,5.728,0,0,1,31,32.7ZM34.891,42a5.728,5.728,0,0,1-2.863-1.175l3.093-3.093a18.2,18.2,0,0,0-.268,3.107c0,.385.014.773.039,1.16ZM35.967,47.1H34.852v1.447H36.3v-.613A18.06,18.06,0,0,0,41,54.422a15.545,15.545,0,0,1-8.719-3.694,10.814,10.814,0,0,1-3.85-7.241h6.618a18.013,18.013,0,0,0,.92,3.617Zm12.765,2.635a16.746,16.746,0,0,1-7.088-7.3,16.421,16.421,0,0,1-.777-1.833,16.591,16.591,0,0,1-.9-4.189c-.006-.073-.011-.146-.016-.217-.007-.1-.013-.2-.018-.306-.014-.279-.021-.564-.021-.847a16.834,16.834,0,0,1,.187-2.5q.083-.558.208-1.118c.377-.008.751-.028,1.115-.059.251-.021.5-.046.751-.077a18.1,18.1,0,0,0,.445,2.563,17.9,17.9,0,0,0,2.047,4.931c.033.055.067.109.1.164a2.891,2.891,0,0,0,1.767,4.47,2.892,2.892,0,0,0,4.371,3.207,7.306,7.306,0,0,0-2.176,3.111ZM43.947,33.168a16.7,16.7,0,0,1-.386-2.744.723.723,0,0,0-.844-.672c-.185.031-.372.059-.561.084a2.893,2.893,0,1,1,1.79,3.332Zm11.592,6.009a1.464,1.464,0,0,1,.587,0,2.906,2.906,0,0,0,.82.491,1.447,1.447,0,0,1-.08,1.938l-.017.017a1.452,1.452,0,0,1-.317.234A12.983,12.983,0,0,0,55,39.543,2.92,2.92,0,0,0,55.539,39.177Zm-1.23,2.963v0l.09-.286Zm.215-.692c-.081-.026-.165-.046-.249-.064a2.87,2.87,0,0,0,.071-.321q.151.209.292.425c-.038-.014-.076-.027-.115-.04Zm-1.509.692-.269-.273.269.271Zm-6.854-2.6a1.437,1.437,0,0,1,1.283-.362,2.907,2.907,0,0,0,.82.492,1.444,1.444,0,0,1-.227,2.068,1.421,1.421,0,0,1-.453.237h0a1.432,1.432,0,0,1-.43.065A1.449,1.449,0,0,1,45.7,40.593,1.429,1.429,0,0,1,46.162,39.538ZM47.8,42.661v0h0Zm.414.623a2.848,2.848,0,0,0,.713-.406c.035-.027.069-.056.1-.085a1.461,1.461,0,0,1,.587,0,2.908,2.908,0,0,0,.816.491,1.441,1.441,0,0,1,.337.925,1.33,1.33,0,0,1-.014.193,1.446,1.446,0,1,1-2.543-1.119Zm2.633-.621v0h0Zm1.76-2.995a1.447,1.447,0,0,1-1.542,2.307h0a1.447,1.447,0,0,1-.68-2.306,2.908,2.908,0,0,0,.819-.491,1.464,1.464,0,0,1,.587,0,2.906,2.906,0,0,0,.819.491Zm-1.836-2.693a1.446,1.446,0,0,1-2.708.708,1.425,1.425,0,0,1-.185-.708,1.447,1.447,0,0,1,2.894,0Zm.723,9.147.035.04c-.079.053-.156.107-.233.163C51.363,46.261,51.429,46.193,51.492,46.122Zm1.408-.684a1.447,1.447,0,0,1-.67-1.025,1.362,1.362,0,0,1-.014-.2,1.442,1.442,0,0,1,.338-.926,2.91,2.91,0,0,0,.814-.49,1.456,1.456,0,0,1,.724.034l.217-.69v0l-.214.688a1.443,1.443,0,0,1,.579.347c.023.023.044.045.066.07a1.444,1.444,0,0,1,.157,1.717,7.033,7.033,0,0,0-.807.119,7.168,7.168,0,0,0-1.19.356Zm4.8-.334a13.064,13.064,0,0,0-.577-1.926,2.913,2.913,0,0,0,.583-.386,1.465,1.465,0,0,1,.586,0,2.909,2.909,0,0,0,.816.49,1.437,1.437,0,0,1,.139,1.654,7.2,7.2,0,0,0-1.119.116,3.575,3.575,0,0,1-.429.051Zm3.917-4.512a1.446,1.446,0,0,1-2.462,1.03l-.017-.017a1.447,1.447,0,0,1,.6-2.395h0a1.432,1.432,0,0,1,.43-.065,1.449,1.449,0,0,1,1.447,1.447ZM58,35.529A1.447,1.447,0,0,1,59.116,37.9a2.908,2.908,0,0,0-.819.492,1.441,1.441,0,0,1-1.309-.386l-.017-.017A1.447,1.447,0,0,1,58,35.529Zm-2.894,1.447a1.446,1.446,0,0,1-2.462,1.03l-.017-.017a1.447,1.447,0,1,1,2.48-1.013Zm-2.142-2.809q-.078.019-.154.043c.07-.147.136-.3.2-.447Q52.983,33.963,52.967,34.167ZM39.647,25.576a6.413,6.413,0,0,0,1.717-4.454V21.11c0-.017,0-.034,0-.051a3.617,3.617,0,0,1,7.229-.2c0,.088.006.178,0,.265a6.212,6.212,0,0,0,1.661,4.392,7.23,7.23,0,0,1,.675,9.056,2.892,2.892,0,0,0-4.449,2.97,7.177,7.177,0,0,1-.8.121,16.558,16.558,0,0,1-1.082-2.3c-.075-.2-.145-.4-.212-.6a4.34,4.34,0,1,0-3.726-4.795c-.249.011-.5.017-.753.017h-.154a.714.714,0,0,0-.4.105,7.279,7.279,0,0,0-1.536-.714,7.249,7.249,0,0,1,1.817-3.8Zm-9.813,11.4h3.995L31,39.8A5.728,5.728,0,0,1,29.834,36.975Zm-4.368,6.511h1.512a12.213,12.213,0,0,0,4.345,8.328A17.3,17.3,0,0,0,42.81,55.962l.2,0a17.985,17.985,0,0,0,3.254,1.695,19.833,19.833,0,0,1-3.458.3c-9.3,0-16.911-6.426-17.344-14.469Zm38.12,12.73a5.8,5.8,0,0,1-5.873,1.474.723.723,0,0,0-.433,0,5.787,5.787,0,1,1-2.9-11.192,5.632,5.632,0,0,1,.918-.114c.086,0,.172,0,.256,0a5.905,5.905,0,0,1,.786.055h.01l.114.017c.008.064.015.127.021.185,0,.009,0,.019,0,.029a11.5,11.5,0,0,1,.063,1.211v.565c-.456-.146-.723-.413-.723-.616H54.386c0,1.217,1.271,2.17,2.894,2.17s2.894-.953,2.894-2.17H58.727c0,.2-.268.47-.723.616v-.565a12.976,12.976,0,0,0-.069-1.341c.154-.013.308-.033.461-.061a5.779,5.779,0,0,1,1.038-.1l.17,0a5.892,5.892,0,0,1,.849.086,5.726,5.726,0,0,1,2.021.774,5.859,5.859,0,0,1,2.4,2.915h0a5.674,5.674,0,0,1,.362,1.884,5.747,5.747,0,0,1-1.65,4.174Zm2.281-7.377a7.323,7.323,0,0,0-1.343-1.811c.55-.136,1.1-.3,1.632-.487.184.552.4,1.1.632,1.63-.3.234-.607.456-.921.668Z"/>
      <path id="Trazado_909849" data-name="Trazado 909849" d="M201.2,129.922a.366.366,0,0,1-.065-.006.362.362,0,0,1-.291-.421,5.105,5.105,0,0,1,2.644-3.581.362.362,0,1,1,.335.641,4.377,4.377,0,0,0-2.268,3.069A.362.362,0,0,1,201.2,129.922Z" transform="translate(-160.85 -99.942)" fill="#76d275"/>
      <path id="Trazado_909850" data-name="Trazado 909850" d="M177.794,44.861a.362.362,0,0,1-.355-.432,7.231,7.231,0,0,1,1.765-3.49,6.412,6.412,0,0,0,1.717-4.454V36.43a3.647,3.647,0,0,1,2.813-3.536.362.362,0,1,1,.161.705,2.916,2.916,0,0,0-2.252,2.823v.048a7.134,7.134,0,0,1-1.907,4.958,6.51,6.51,0,0,0-1.589,3.141.362.362,0,0,1-.354.292Z" transform="translate(-139.556 -15.363)" fill="#76d275"/>
    </g>
  </g>
</svg>
