<svg xmlns="http://www.w3.org/2000/svg" width="90" height="90" viewBox="0 0 90 90">
  <g id="Grupo_1116918" data-name="Grupo 1116918" transform="translate(-410.051 -6670)">
    <g id="Grupo_1106802" data-name="Grupo 1106802" transform="translate(0.479 -3228)" opacity="0.75">
      <g id="Grupo_1106801" data-name="Grupo 1106801">
        <circle id="Elipse_12309" data-name="Elipse 12309" cx="45" cy="45" r="45" transform="translate(409.571 9898)" fill="#6f9246"/>
      </g>
    </g>
    <g id="mermelada-de-manzana" transform="translate(434.051 6690)">
      <path id="Trazado_909732" data-name="Trazado 909732" d="M34.957,24.139V48.464a4.708,4.708,0,0,1-4.708,4.708H6.708A4.708,4.708,0,0,1,2,48.464V24.139h.92a5.357,5.357,0,0,0,3.789-1.57h0A5.356,5.356,0,0,1,10.5,21h.27a5.357,5.357,0,0,1,3.789,1.57h0a5.356,5.356,0,0,0,3.788,1.569h.27a5.357,5.357,0,0,0,3.789-1.57h0A5.356,5.356,0,0,1,26.19,21h.27a5.357,5.357,0,0,1,3.789,1.57h0a5.356,5.356,0,0,0,3.788,1.569Z" transform="translate(-0.215 -4.306)" fill="#f9d266"/>
      <rect id="Rectángulo_409644" data-name="Rectángulo 409644" width="24" height="21" rx="4" transform="translate(6 23)" fill="#d5883e"/>
      <path id="Trazado_909733" data-name="Trazado 909733" d="M11.139,29A3.139,3.139,0,0,0,8,32.139V47.048a3.118,3.118,0,0,0,.085.7,3.118,3.118,0,0,0,.7.085H26.048a3.139,3.139,0,0,0,3.139-3.139V29.785a3.118,3.118,0,0,0-.085-.7A3.118,3.118,0,0,0,28.4,29Z" transform="translate(-1.507 -6.029)" fill="#f3a748"/>
      <path id="Trazado_909734" data-name="Trazado 909734" d="M21.493,38h0a4.708,4.708,0,0,1-4.708,4.708h-.729A5.493,5.493,0,1,0,21.493,38Z" transform="translate(-3.23 -7.967)" fill="#f9d266"/>
      <rect id="Rectángulo_409645" data-name="Rectángulo 409645" width="24" height="3" transform="translate(6 10)" fill="#c0dafc"/>
      <path id="Trazado_909735" data-name="Trazado 909735" d="M29.186,12.785V12H8v1.569H28.4A.785.785,0,0,0,29.186,12.785Z" transform="translate(-1.507 -2.368)" fill="#d4e9ff"/>
      <path id="Trazado_909736" data-name="Trazado 909736" d="M34.957,23.062h-.92a5.357,5.357,0,0,1-3.789-1.57h0a5.356,5.356,0,0,0-3.788-1.569h-.27a5.357,5.357,0,0,0-3.789,1.57h0a5.356,5.356,0,0,1-3.788,1.569h-.27a5.357,5.357,0,0,1-3.789-1.57h0a5.356,5.356,0,0,0-3.788-1.569H10.5a5.357,5.357,0,0,0-3.789,1.57h0A5.356,5.356,0,0,1,2.92,23.062H2V20.708A4.708,4.708,0,0,1,6.708,16H30.249a4.708,4.708,0,0,1,4.708,4.708Z" transform="translate(-0.215 -3.23)" fill="#fce797"/>
      <rect id="Rectángulo_409646" data-name="Rectángulo 409646" width="28" height="8" rx="2" transform="translate(4 2)" fill="#f0ae42"/>
      <path id="Trazado_909737" data-name="Trazado 909737" d="M6.569,2A1.569,1.569,0,0,0,5,3.569V6.708H27.756a1.569,1.569,0,0,0,1.569-1.569V2Z" transform="translate(-0.861 -0.215)" fill="#f9d266"/>
      <path id="Trazado_909738" data-name="Trazado 909738" d="M22.569,36.923v-.135A5.357,5.357,0,0,0,21,33h3.139a3.249,3.249,0,0,1-1.28,3.73Z" transform="translate(-4.306 -6.89)" fill="#976947"/>
      <path id="Trazado_909739" data-name="Trazado 909739" d="M19.708,38h1.569a4.708,4.708,0,0,1-4.708,4.708H15A4.708,4.708,0,0,1,19.708,38Z" transform="translate(-3.014 -7.967)" fill="#559b2d"/>
      <path id="Trazado_909740" data-name="Trazado 909740" d="M15.09,41.923H15.8A4.708,4.708,0,0,0,20.442,38h-.714A4.708,4.708,0,0,0,15.09,41.923Z" transform="translate(-3.034 -7.967)" fill="#6bc13b"/>
      <path id="Trazado_909741" data-name="Trazado 909741" d="M58.555,60.277a3.139,3.139,0,0,0-2.073-2.954,2.1,2.1,0,0,1-1.251-1.251,3.139,3.139,0,0,0-5.907,0,2.1,2.1,0,0,1-1.251,1.251A3.139,3.139,0,0,0,46,60.277Z" transform="translate(-9.689 -11.411)" fill="#f3a748"/>
      <path id="Trazado_909742" data-name="Trazado 909742" d="M25.54,41.923a6.234,6.234,0,0,0-.628-2.73A5.467,5.467,0,0,0,21.493,38a4.708,4.708,0,0,1-4.708,4.708h-.729a5.493,5.493,0,0,0,2.564,5.46,6.277,6.277,0,0,0,6.92-6.245Z" transform="translate(-3.23 -7.967)" fill="#fce797"/>
      <path id="Trazado_909743" data-name="Trazado 909743" d="M35.526,17.478a5.5,5.5,0,0,0-4.708-5.43V10.416a2.354,2.354,0,0,0,2.354-2.354V3.354A2.354,2.354,0,0,0,30.818,1H5.708A2.354,2.354,0,0,0,3.354,3.354V8.062a2.354,2.354,0,0,0,2.354,2.354v1.632A5.5,5.5,0,0,0,1,17.478V44.158A5.5,5.5,0,0,0,6.493,49.65H30.033a5.5,5.5,0,0,0,5.493-5.493ZM4.923,8.062V3.354a.785.785,0,0,1,.785-.785h25.11a.785.785,0,0,1,.785.785V8.062a.785.785,0,0,1-.785.785H5.708A.785.785,0,0,1,4.923,8.062Zm24.325,2.354v1.569H7.277V10.416ZM6.493,13.555H30.033a3.928,3.928,0,0,1,3.923,3.923v1.569h-.135a4.543,4.543,0,0,1-3.234-1.339,6.1,6.1,0,0,0-4.343-1.8h-.27a6.1,6.1,0,0,0-4.343,1.8A4.543,4.543,0,0,1,18.4,19.048h-.27a4.543,4.543,0,0,1-3.234-1.339,6.1,6.1,0,0,0-4.343-1.8h-.27a6.1,6.1,0,0,0-4.343,1.8A4.543,4.543,0,0,1,2.7,19.048H2.569V17.478a3.928,3.928,0,0,1,3.923-3.923ZM30.033,48.081H6.493a3.928,3.928,0,0,1-3.923-3.923V20.617H2.7a6.1,6.1,0,0,0,4.343-1.8,4.543,4.543,0,0,1,3.234-1.339h.27a4.543,4.543,0,0,1,3.234,1.339,6.1,6.1,0,0,0,4.343,1.8h.27a6.1,6.1,0,0,0,4.343-1.8,4.543,4.543,0,0,1,3.234-1.339h.27a4.543,4.543,0,0,1,3.234,1.339,6.1,6.1,0,0,0,4.343,1.8h.135V44.158a3.928,3.928,0,0,1-3.923,3.923Z"/>
      <path id="Trazado_909744" data-name="Trazado 909744" d="M28.186,28H10.923A3.928,3.928,0,0,0,7,31.923V46.832a3.928,3.928,0,0,0,3.923,3.923H28.186a3.928,3.928,0,0,0,3.923-3.923V31.923A3.928,3.928,0,0,0,28.186,28Zm2.354,18.832a2.354,2.354,0,0,1-2.354,2.354H10.923a2.354,2.354,0,0,1-2.354-2.354V31.923a2.354,2.354,0,0,1,2.354-2.354H28.186a2.354,2.354,0,0,1,2.354,2.354Z" transform="translate(-1.292 -5.814)"/>
      <path id="Trazado_909745" data-name="Trazado 909745" d="M22.808,36.175a4.036,4.036,0,0,0,.567-3.639A.785.785,0,0,0,22.632,32H19.493a.785.785,0,0,0-.555,1.339,4.608,4.608,0,0,1,1.287,2.584h-.732A5.5,5.5,0,0,0,14,41.416a.785.785,0,0,0,.785.785,6.277,6.277,0,1,0,8.023-6.026ZM22,33.569a2.478,2.478,0,0,1-.341,1.512,6.248,6.248,0,0,0-.6-1.512Zm-2.511,3.923H20.2a3.93,3.93,0,0,1-3.845,3.139h-.706a3.93,3.93,0,0,1,3.845-3.139Zm1.569,9.416A4.713,4.713,0,0,1,16.354,42.2a5.5,5.5,0,0,0,5.421-4.648,4.708,4.708,0,0,1-.712,9.357Z" transform="translate(-2.799 -6.675)"/>
      <path id="Trazado_909746" data-name="Trazado 909746" d="M56.535,56.373a1.309,1.309,0,0,1-.785-.785,3.923,3.923,0,0,0-7.382,0,1.309,1.309,0,0,1-.78.779A3.936,3.936,0,0,0,45,60.061a.785.785,0,0,0,.785.785H58.34a.785.785,0,0,0,.785-.785,3.935,3.935,0,0,0-2.589-3.688Zm-9.83,2.9a2.36,2.36,0,0,1,1.418-1.43,2.9,2.9,0,0,0,1.726-1.726,2.354,2.354,0,0,1,4.43,0,2.9,2.9,0,0,0,1.726,1.726,2.362,2.362,0,0,1,1.413,1.43Z" transform="translate(-9.474 -11.195)"/>
    </g>
  </g>
</svg>
