<svg id="Grupo_1106469" data-name="Grupo 1106469" xmlns="http://www.w3.org/2000/svg" width="10.998" height="10.999" viewBox="0 0 10.998 10.999">
  <path id="Trazado_902148" data-name="Trazado 902148" d="M11,5.34A5.5,5.5,0,1,0,5.495,11,5.486,5.486,0,0,0,11,5.34" transform="translate(0 0)" fill="#8c492a"/>
  <path id="Trazado_902149" data-name="Trazado 902149" d="M8.912,4.364c-.241.247-.487.49-.732.733-.149.149-.3.3-.452.443a.212.212,0,0,1-.08.08,8.091,8.091,0,0,1-.595.591.04.04,0,0,1-.021.009.145.145,0,0,1-.105.105.04.04,0,0,1-.009.021h0a8.322,8.322,0,0,1-.592.6.163.163,0,0,1-.1.084.032.032,0,0,1-.008.021,7.331,7.331,0,0,1-.617.617l-.083.083a9.5,9.5,0,0,1-.676.685c-.158.148-.372.1-.538-.084a1.448,1.448,0,0,1-.232-.231L3.6,7.647a1.59,1.59,0,0,1-.232-.232l-.495-.494a1.248,1.248,0,0,1-.206-.2L2.646,6.69l-.468-.47-.026-.027c-.273-.231-.273-.444,0-.675.009-.009.017-.018.026-.026a2.979,2.979,0,0,1,.466-.446c.012-.023.033-.02.054-.018a.387.387,0,0,1,.416.132c.087.094.177.185.267.277L4.467,6.514c.136.135.136.135.279.016l.364-.364A3.265,3.265,0,0,1,5.472,5.8l.312-.312.027-.026L6.2,5.076h0l.313-.309A3.689,3.689,0,0,1,6.876,4.4a3.759,3.759,0,0,1,.362-.363A3.9,3.9,0,0,1,7.6,3.676c.117-.12.23-.246.353-.36a.344.344,0,0,1,.48.009c.172.164.34.331.5.5a.345.345,0,0,1-.026.536" transform="translate(0 0)" fill="#fff"/>
</svg>
