<svg xmlns="http://www.w3.org/2000/svg" width="82" height="82" viewBox="0 0 82 82">
  <g id="Grupo_1116938" data-name="Grupo 1116938" transform="translate(6692 8096.001)">
    <g id="Grupo_1116529" data-name="Grupo 1116529" transform="translate(-6702.151 -8106.059)">
      <g id="Elipse_157" data-name="Elipse 157" transform="translate(15.151 15.059)" fill="#fff" stroke="#ffce79" stroke-linejoin="round" stroke-width="5">
        <circle cx="36" cy="36" r="36" stroke="none"/>
        <circle cx="36" cy="36" r="38.5" fill="none"/>
      </g>
    </g>
    <g id="fecha-de-vencimiento" transform="translate(-6669 -8074.027)">
      <g id="Grupo_1116925" data-name="Grupo 1116925" transform="translate(0.721 3.725)">
        <path id="Trazado_909851" data-name="Trazado 909851" d="M40.1,51.294v21l-2.461-4.264a1.723,1.723,0,0,0-2.985,0l-4.682,8.109H10V51.294h4.679v1.355a1.651,1.651,0,1,0,3.3,0V51.294H23.32v1.355a1.652,1.652,0,0,0,3.3,0V51.294h5.339v1.355a1.651,1.651,0,1,0,3.3,0V51.294Z" transform="translate(-10 -51.294)" fill="#f9f6f4"/>
      </g>
      <g id="Grupo_1116926" data-name="Grupo 1116926" transform="translate(4.717 13.673)">
        <path id="Trazado_909852" data-name="Trazado 909852" d="M65.4,189.232h3.183v3.183H65.4Z" transform="translate(-65.401 -189.232)" fill="#a0c8ff"/>
      </g>
      <g id="Grupo_1116927" data-name="Grupo 1116927" transform="translate(4.717 20.728)">
        <path id="Trazado_909853" data-name="Trazado 909853" d="M65.4,287.046h3.183v3.183H65.4Z" transform="translate(-65.401 -287.046)" fill="#a0c8ff"/>
      </g>
      <g id="Grupo_1116928" data-name="Grupo 1116928" transform="translate(10.981 13.673)">
        <path id="Trazado_909854" data-name="Trazado 909854" d="M152.252,189.232h3.183v3.183h-3.183Z" transform="translate(-152.252 -189.232)" fill="#a0c8ff"/>
      </g>
      <g id="Grupo_1116929" data-name="Grupo 1116929" transform="translate(17.245 13.673)">
        <path id="Trazado_909855" data-name="Trazado 909855" d="M239.1,189.232h3.183v3.183H239.1Z" transform="translate(-239.102 -189.232)" fill="#a0c8ff"/>
      </g>
      <g id="Grupo_1116930" data-name="Grupo 1116930" transform="translate(17.245 20.728)">
        <path id="Trazado_909856" data-name="Trazado 909856" d="M239.1,287.046h3.183v3.183H239.1Z" transform="translate(-239.102 -287.046)" fill="#a0c8ff"/>
      </g>
      <g id="Grupo_1116931" data-name="Grupo 1116931" transform="translate(23.509 13.673)">
        <path id="Trazado_909857" data-name="Trazado 909857" d="M325.953,189.232h3.183v3.183h-3.183Z" transform="translate(-325.953 -189.232)" fill="#a0c8ff"/>
      </g>
      <g id="Grupo_1116932" data-name="Grupo 1116932" transform="translate(5.4 0.748)">
        <path id="Trazado_909858" data-name="Trazado 909858" d="M76.524,16.01a1.653,1.653,0,0,1-1.651-1.651V11.678a1.651,1.651,0,1,1,3.3,0v2.681A1.651,1.651,0,0,1,76.524,16.01Z" transform="translate(-74.873 -10.027)" fill="#e2e7ef"/>
      </g>
      <g id="Grupo_1116933" data-name="Grupo 1116933" transform="translate(14.042 0.748)">
        <path id="Trazado_909859" data-name="Trazado 909859" d="M196.342,16.01a1.651,1.651,0,0,1-1.651-1.651V11.678a1.651,1.651,0,1,1,3.3,0v2.681A1.651,1.651,0,0,1,196.342,16.01Z" transform="translate(-194.691 -10.027)" fill="#e2e7ef"/>
      </g>
      <g id="Grupo_1116934" data-name="Grupo 1116934" transform="translate(22.684 0.748)">
        <path id="Trazado_909860" data-name="Trazado 909860" d="M316.159,16.01a1.653,1.653,0,0,1-1.651-1.651V11.678a1.651,1.651,0,1,1,3.3,0v2.681A1.651,1.651,0,0,1,316.159,16.01Z" transform="translate(-314.508 -10.027)" fill="#e2e7ef"/>
      </g>
      <g id="Grupo_1116935" data-name="Grupo 1116935" transform="translate(17.529 19.599)">
        <path id="Trazado_909861" data-name="Trazado 909861" d="M259.99,288.016a1.723,1.723,0,0,0,1.492-2.585l-7.613-13.186a1.723,1.723,0,0,0-2.985,0l-7.613,13.186a1.723,1.723,0,0,0,1.492,2.585H259.99Z" transform="translate(-243.038 -271.384)" fill="#ffce69"/>
      </g>
      <g id="Grupo_1116936" data-name="Grupo 1116936" transform="translate(0.721 3.725)">
        <path id="Trazado_909862" data-name="Trazado 909862" d="M19.5,57.371H40.1V51.294H35.265v1.355a1.651,1.651,0,1,1-3.3,0V51.294H26.624v1.355a1.652,1.652,0,0,1-3.3,0V51.294H17.981v1.355a1.651,1.651,0,1,1-3.3,0V51.294H10v6.077h9.5Z" transform="translate(-10 -51.294)" fill="#8c492a"/>
      </g>
      <g id="Grupo_1116937" data-name="Grupo 1116937" transform="translate(0 0.027)">
        <path id="Trazado_909863" data-name="Trazado 909863" d="M59.305,179.232H56.122a.721.721,0,0,0-.721.721v3.183a.721.721,0,0,0,.721.721h3.183a.721.721,0,0,0,.721-.721v-3.183A.721.721,0,0,0,59.305,179.232Zm-.721,3.183h-1.74v-1.74h1.74Z" transform="translate(-51.405 -166.307)"/>
        <path id="Trazado_909864" data-name="Trazado 909864" d="M59.305,277.046H56.122a.721.721,0,0,0-.721.721v3.183a.721.721,0,0,0,.721.721h3.183a.721.721,0,0,0,.721-.721v-3.183A.721.721,0,0,0,59.305,277.046Zm-.721,3.183h-1.74v-1.74h1.74Z" transform="translate(-51.405 -257.066)"/>
        <path id="Trazado_909865" data-name="Trazado 909865" d="M146.156,183.858a.721.721,0,0,0,.721-.721v-3.183a.721.721,0,0,0-.721-.721h-3.183a.721.721,0,0,0-.721.721v3.183a.721.721,0,0,0,.721.721Zm-2.462-3.183h1.74v1.74h-1.74Z" transform="translate(-131.992 -166.308)"/>
        <path id="Trazado_909866" data-name="Trazado 909866" d="M229.823,183.858h3.183a.721.721,0,0,0,.721-.721v-3.183a.721.721,0,0,0-.721-.721h-3.183a.721.721,0,0,0-.721.721v3.183A.721.721,0,0,0,229.823,183.858Zm.721-3.183h1.74v1.74h-1.74Z" transform="translate(-212.578 -166.308)"/>
        <path id="Trazado_909867" data-name="Trazado 909867" d="M233.727,280.95v-3.183a.721.721,0,0,0-.721-.721h-3.183a.721.721,0,0,0-.721.721v3.183a.721.721,0,0,0,.721.721h3.183A.721.721,0,0,0,233.727,280.95Zm-1.442-.721h-1.74v-1.74h1.74Z" transform="translate(-212.578 -257.066)"/>
        <path id="Trazado_909868" data-name="Trazado 909868" d="M316.674,183.858h3.183a.721.721,0,0,0,.721-.721v-3.183a.721.721,0,0,0-.721-.721h-3.183a.721.721,0,0,0-.721.721v3.183A.721.721,0,0,0,316.674,183.858Zm.721-3.183h1.74v1.74H317.4Z" transform="translate(-293.165 -166.308)"/>
        <path id="Trazado_909869" data-name="Trazado 909869" d="M36.6,33.285l-.089-.154a.721.721,0,1,0-1.249.721l.089.154a1.011,1.011,0,0,1-.868,1.5H19.255a1.011,1.011,0,0,1-.868-1.5L26,20.821a1,1,0,0,1,1.735,0l4.36,7.552a.721.721,0,1,0,1.249-.721l-1.8-3.121V3.725A.721.721,0,0,0,30.822,3H26.707V2.4a2.372,2.372,0,0,0-4.745,0V3h-3.9V2.4a2.372,2.372,0,1,0-4.745,0V3h-3.9V2.4a2.372,2.372,0,0,0-4.745,0V3H.721A.721.721,0,0,0,0,3.725V28.569a.721.721,0,0,0,.721.721H19.445l-2.307,4a2.465,2.465,0,0,0,2.117,3.667H34.481A2.444,2.444,0,0,0,36.6,33.285ZM23.4,2.4a.93.93,0,0,1,1.86,0V5.08a.93.93,0,1,1-1.86,0Zm-8.642,0a.93.93,0,0,1,1.86,0V5.08a.93.93,0,0,1-1.86,0ZM7.051,1.47a.931.931,0,0,1,.93.93V5.08a.93.93,0,1,1-1.86,0V3.725s0-1.325,0-1.325a.931.931,0,0,1,.93-.93ZM1.442,10.523h2.2a.721.721,0,0,0,0-1.442h-2.2V4.446H4.679V5.08a2.372,2.372,0,1,0,4.745,0V4.446h3.9V5.08a2.373,2.373,0,1,0,4.746,0V4.446h3.9V5.08a2.4,2.4,0,0,0,1.493,2.2,2.371,2.371,0,0,0,.88.169A2.4,2.4,0,0,0,26.707,5.08V4.446H30.1V9.08H10.223a.721.721,0,1,0,0,1.442H30.1V22.032L28.985,20.1a2.42,2.42,0,0,0-2.117-1.222h0A2.42,2.42,0,0,0,24.751,20.1l-4.474,7.748H1.442Z" transform="translate(0 -0.027)"/>
        <path id="Trazado_909870" data-name="Trazado 909870" d="M149.376,282.264l-1.823,2-.643-.655a.721.721,0,0,0-1.029,1.011l1.177,1.2a.721.721,0,0,0,.514.216h.013a.721.721,0,0,0,.519-.235l2.336-2.557a.721.721,0,0,0-1.065-.973Z" transform="translate(-135.168 -261.69)"/>
        <path id="Trazado_909871" data-name="Trazado 909871" d="M86.208,127.032a.721.721,0,1,0-.7-.565A.729.729,0,0,0,86.208,127.032Z" transform="translate(-79.321 -116.536)"/>
        <path id="Trazado_909872" data-name="Trazado 909872" d="M364.962,334.242a.721.721,0,1,0-1.443,0v5.735a.721.721,0,0,0,1.443,0Z" transform="translate(-337.301 -309.468)"/>
        <path id="Trazado_909873" data-name="Trazado 909873" d="M364.878,447.881a.721.721,0,1,0-.2,1A.727.727,0,0,0,364.878,447.881Z" transform="translate(-337.339 -415.284)"/>
        <path id="Trazado_909874" data-name="Trazado 909874" d="M468.733,418.856a.721.721,0,1,0-.2,1A.727.727,0,0,0,468.733,418.856Z" transform="translate(-433.703 -388.353)"/>
      </g>
    </g>
  </g>
</svg>
