<svg xmlns="http://www.w3.org/2000/svg" width="99.999" height="99.999" viewBox="0 0 99.999 99.999">
  <g id="Grupo_1116903" data-name="Grupo 1116903" transform="translate(-275.051 -5497)">
    <g id="a1" transform="translate(280.051 5502)" fill="#fff" stroke="#ffce79" stroke-linejoin="round" stroke-width="5">
      <circle cx="44.999" cy="44.999" r="44.999" stroke="none"/>
      <circle cx="44.999" cy="44.999" r="47.499" fill="none"/>
    </g>
    <g id="ensalada-de-frutas" transform="translate(296.819 5486.745)">
      <path id="Trazado_909658" data-name="Trazado 909658" d="M62.178,219.373a26.846,26.846,0,1,1-53.691,0" transform="translate(-7.568 -162.926)" fill="#e6e6e6"/>
      <path id="Trazado_909659" data-name="Trazado 909659" d="M17.711,219.373H8.487a26.862,26.862,0,0,0,31.458,26.449A26.852,26.852,0,0,1,17.711,219.373Z" transform="translate(-7.568 -162.926)" fill="#ccc"/>
      <path id="Trazado_909660" data-name="Trazado 909660" d="M428.716,148.692l-.793,1.144a8.026,8.026,0,0,0-.734-1.778C427.719,148.261,428.229,148.474,428.716,148.692Z" transform="translate(-380.856 -99.347)" fill="#4ca1e0"/>
      <g id="Grupo_1116897" data-name="Grupo 1116897" transform="translate(0.919 50.78)">
        <path id="Trazado_909661" data-name="Trazado 909661" d="M473.1,174.753c0,.039,0,.077,0,.117a5.441,5.441,0,0,1-1.522,3.448l-2.177-8.994C471.746,170.915,473.1,172.771,473.1,174.753Z" transform="translate(-419.403 -169.086)" fill="#b3b3b3"/>
        <path id="Trazado_909662" data-name="Trazado 909662" d="M14.095,174.857a3.816,3.816,0,0,0-1.722,3.193c0,.1,0,.206.012.307-2.474-1.62-3.9-3.523-3.9-5.56,0-2.081,1.488-4.023,4.062-5.667a8.157,8.157,0,0,0,1.546,7.727Z" transform="translate(-8.487 -167.13)" fill="#b3b3b3"/>
      </g>
      <path id="Trazado_909663" data-name="Trazado 909663" d="M424.421,132.344l2.177,8.994a10.081,10.081,0,0,1-1.126,1.079l-6.522-8.256,1.628-2.346.793-1.144h0l1.96-2.826Z" transform="translate(-373.51 -81.326)" fill="#f94848"/>
      <path id="Trazado_909664" data-name="Trazado 909664" d="M376.124,161.546l6.522,8.256c-2.5,2.073-6.635,3.775-11.733,4.843l2.852-16.083Z" transform="translate(-330.685 -108.711)" fill="#f97d7d"/>
      <path id="Trazado_909665" data-name="Trazado 909665" d="M290.185,115.517l-1.628,2.346-2.358-2.984-6.1,9.889a2.6,2.6,0,0,0-.383-.485,2.64,2.64,0,0,0-3.634-.093l-.066-.095a2.742,2.742,0,0,0,.413-.339,2.639,2.639,0,0,0-3.733-3.732,2.629,2.629,0,0,0,.759-1.592,8.451,8.451,0,0,0,4.211-7.393,8.151,8.151,0,0,1,12.522,4.478Z" transform="translate(-243.118 -65.027)" fill="#ffd41d"/>
      <path id="Trazado_909666" data-name="Trazado 909666" d="M290.633,117.712a8.15,8.15,0,0,1,6.071-7.88,8.148,8.148,0,1,0,0,15.759A8.15,8.15,0,0,1,290.633,117.712Z" transform="translate(-255.409 -65.027)" fill="#e2ba14"/>
      <path id="Trazado_909667" data-name="Trazado 909667" d="M319.034,158.562l-2.852,16.083c-1.662.349-3.429.629-5.274.832a2.64,2.64,0,0,0-1.385-3.252l.009-.017a2.64,2.64,0,0,0,3.4-3.758Z" transform="translate(-275.953 -108.711)" fill="#f94848"/>
      <g id="Grupo_1116898" data-name="Grupo 1116898" transform="translate(29.819 58.482)">
        <path id="Trazado_909668" data-name="Trazado 909668" d="M300.773,239.4a2.64,2.64,0,0,1-3.4,3.758,2.6,2.6,0,0,1-.714-.509,2.639,2.639,0,0,1,0-3.733c.032-.032.065-.064.1-.093a2.64,2.64,0,0,1,3.634.093A2.6,2.6,0,0,1,300.773,239.4Z" transform="translate(-293.613 -238.138)" fill="#4ca1e0"/>
        <path id="Trazado_909669" data-name="Trazado 909669" d="M279.448,283.054a2.637,2.637,0,0,1,.63,2.724c-1.563.173-3.182.291-4.844.349a2.641,2.641,0,0,1,.481-3.073,2.747,2.747,0,0,1,.265-.232,2.639,2.639,0,0,1,3.468.232Z" transform="translate(-274.942 -277.493)" fill="#4ca1e0"/>
      </g>
      <path id="Trazado_909670" data-name="Trazado 909670" d="M254.818,74.37a8.451,8.451,0,0,1-4.211,7.393,2.633,2.633,0,0,0-.759-2.141,2.713,2.713,0,0,0-.405-.333,6.316,6.316,0,0,0-2.374-6.677,8.377,8.377,0,0,1,2.7-2.648,8.194,8.194,0,0,1,.73-.4l2.339-1.131,1.131,2.337A8.414,8.414,0,0,1,254.818,74.37Z" transform="translate(-220.273 -28.358)" fill="#a3e261"/>
      <path id="Trazado_909671" data-name="Trazado 909671" d="M282.5,247.96l-.009.017a2.645,2.645,0,0,0-2.713.3l-.021-.027c.069-.057.136-.118.2-.182a2.64,2.64,0,0,0-.755-4.261l.043-.087a2.647,2.647,0,0,0,2.572-.187l.066.095c-.033.029-.066.061-.1.093a2.639,2.639,0,0,0,0,3.733A2.6,2.6,0,0,0,282.5,247.96Z" transform="translate(-248.92 -184.462)" fill="#368cc1"/>
      <g id="Grupo_1116899" data-name="Grupo 1116899" transform="translate(26.531 54.223)">
        <path id="Trazado_909672" data-name="Trazado 909672" d="M270.077,199.64a2.638,2.638,0,0,1,0,3.732,2.751,2.751,0,0,1-.412.339,2.64,2.64,0,1,1,.412-4.071Z" transform="translate(-263.299 -198.867)" fill="#4ca1e0"/>
        <path id="Trazado_909673" data-name="Trazado 909673" d="M249.129,244.571a2.639,2.639,0,0,1,0,3.733c-.064.064-.131.125-.2.182a2.641,2.641,0,1,1,.2-3.915Z" transform="translate(-244.624 -238.925)" fill="#4ca1e0"/>
      </g>
      <path id="Trazado_909674" data-name="Trazado 909674" d="M246.9,254.835l.021.027a2.749,2.749,0,0,0-.265.232,2.641,2.641,0,0,0-.481,3.073q-1.16.041-2.346.041-.746,0-1.481-.016v-6.638a2.616,2.616,0,0,0,1.02-.633,2.64,2.64,0,0,0,3.532,3.915Z" transform="translate(-216.064 -191.051)" fill="#368cc1"/>
      <path id="Trazado_909675" data-name="Trazado 909675" d="M235.66,165.223a2.634,2.634,0,1,1-.405-.333A2.706,2.706,0,0,1,235.66,165.223Z" transform="translate(-206.085 -113.96)" fill="#4ca1e0"/>
      <g id="Grupo_1116900" data-name="Grupo 1116900" transform="translate(25.07 50.491)">
        <path id="Trazado_909676" data-name="Trazado 909676" d="M277.483,283.055a2.639,2.639,0,0,0-.523,2.989q-.86.053-1.736.083h0a2.64,2.64,0,0,1,3.236-3.691A2.636,2.636,0,0,0,277.483,283.055Z" transform="translate(-270.183 -269.503)" fill="#368cc1"/>
        <path id="Trazado_909677" data-name="Trazado 909677" d="M300.087,242.312a2.611,2.611,0,0,1-.748-.524,2.64,2.64,0,0,1,.976-4.352,2.639,2.639,0,1,0,0,4.969C300.24,242.378,300.162,242.347,300.087,242.312Z" transform="translate(-289.67 -229.384)" fill="#368cc1"/>
        <path id="Trazado_909678" data-name="Trazado 909678" d="M247.92,248.831a2.611,2.611,0,0,1-.748-.524,2.64,2.64,0,0,1,.976-4.352,2.639,2.639,0,1,0,0,4.969C248.073,248.9,248,248.866,247.92,248.831Z" transform="translate(-243.161 -235.196)" fill="#368cc1"/>
        <path id="Trazado_909679" data-name="Trazado 909679" d="M268.859,203.908a2.612,2.612,0,0,1-.748-.524,2.64,2.64,0,0,1,.976-4.352,2.639,2.639,0,1,0,0,4.969C269.012,203.974,268.934,203.943,268.859,203.908Z" transform="translate(-261.829 -195.145)" fill="#368cc1"/>
        <path id="Trazado_909680" data-name="Trazado 909680" d="M234.451,169.489a2.612,2.612,0,0,1-.748-.524,2.64,2.64,0,0,1,.976-4.352,2.639,2.639,0,1,0,0,4.969C234.6,169.555,234.526,169.524,234.451,169.489Z" transform="translate(-231.153 -164.46)" fill="#368cc1"/>
        <path id="Trazado_909681" data-name="Trazado 909681" d="M248.568,210.254l-.043.087a2.641,2.641,0,0,0-2.977.528,2.642,2.642,0,0,0-.755-4.261l.042-.087a2.639,2.639,0,0,0,2.984-.524,2.64,2.64,0,0,0,.749,4.257Z" transform="translate(-243.314 -201.492)" fill="#368cc1"/>
      </g>
      <path id="Trazado_909682" data-name="Trazado 909682" d="M172.44,101.995a6.3,6.3,0,0,1-.2,1.591,2.64,2.64,0,0,0-3.327,4.066,2.613,2.613,0,0,0,.748.524l-.042.087a2.641,2.641,0,0,0-2.978.529,2.639,2.639,0,0,0-2.8-4.334,8.151,8.151,0,0,0-3.365-5.242,6.307,6.307,0,0,1,11.969,2.778Z" transform="translate(-143.067 -52.656)" fill="#ffd41d"/>
      <path id="Trazado_909683" data-name="Trazado 909683" d="M210.117,49.176a8.375,8.375,0,0,0-2.7,2.648,6.321,6.321,0,0,0-4.825-1.127,8.407,8.407,0,0,1,1.074-3.327l1.293-2.253,2.253,1.291A8.412,8.412,0,0,1,210.117,49.176Z" transform="translate(-180.616 -7.571)" fill="#93cc52"/>
      <path id="Trazado_909684" data-name="Trazado 909684" d="M217.375,210.154a2.638,2.638,0,0,1-1.02,4.365v-1.5c0-1.019-1.3-1.893-3.162-2.265a2.608,2.608,0,0,1,.449-.6,2.635,2.635,0,0,1,3.733,0Z" transform="translate(-190.07 -154.017)" fill="#368cc1"/>
      <g id="Grupo_1116901" data-name="Grupo 1116901" transform="translate(15.972 56.547)">
        <path id="Trazado_909685" data-name="Trazado 909685" d="M157.585,242.929v8.138a63.349,63.349,0,0,1-6.915-.519q-1.755-.228-3.4-.551v-7.067c0,1.062,1.415,1.967,3.4,2.309a10.4,10.4,0,0,0,1.759.146C155.277,245.384,157.585,244.286,157.585,242.929Z" transform="translate(-147.273 -240.474)" fill="#fce275"/>
        <path id="Trazado_909686" data-name="Trazado 909686" d="M154.424,220.483c1.857.372,3.162,1.246,3.162,2.265,0,1.357-2.308,2.455-5.156,2.455s-5.156-1.1-5.156-2.455c0-1.2,1.814-2.2,4.21-2.414.075-.007.151-.013.228-.017h0q.352-.024.717-.025a10.261,10.261,0,0,1,1.661.131h0Q154.262,220.45,154.424,220.483Z" transform="translate(-147.274 -220.293)" fill="#fce275"/>
      </g>
      <path id="Trazado_909687" data-name="Trazado 909687" d="M180.3,175.746a2.644,2.644,0,0,1-.781,4.275h0a10.26,10.26,0,0,0-1.661-.131q-.365,0-.717.025h0c-.06-.033-.117-.069-.174-.108a2.6,2.6,0,0,1-.4-.327,2.639,2.639,0,0,1,0-3.733,2.6,2.6,0,0,1,.929-.6A2.639,2.639,0,0,1,180.3,175.746Z" transform="translate(-156.731 -123.343)" fill="#4ca1e0"/>
      <path id="Trazado_909688" data-name="Trazado 909688" d="M56.921,123.568a2.645,2.645,0,0,0,1.145,2.554c-.017.042-.036.084-.054.125-2.4.211-4.21,1.212-4.21,2.414v1.728a8.1,8.1,0,0,1-3.224.664c-.106,0-.211,0-.316-.007a3.821,3.821,0,0,0-5.906-2.88,8.147,8.147,0,1,1,14.242-6.7,2.6,2.6,0,0,0-.929.6A2.628,2.628,0,0,0,56.921,123.568Z" transform="translate(-37.831 -69.659)" fill="#ffa91f"/>
      <g id="Grupo_1116902" data-name="Grupo 1116902" transform="translate(10.891 51.631)">
        <path id="Trazado_909689" data-name="Trazado 909689" d="M179.093,180a2.611,2.611,0,0,1-.748-.524,2.64,2.64,0,0,1,.976-4.352,2.639,2.639,0,1,0,0,4.969C179.246,180.07,179.168,180.039,179.093,180Z" transform="translate(-167.62 -174.975)" fill="#368cc1"/>
        <path id="Trazado_909690" data-name="Trazado 909690" d="M105.508,258.865V264.2a44.037,44.037,0,0,1-5.081-1.293,3.815,3.815,0,0,0,1.554-3.076c0-.106,0-.21-.012-.313.1,0,.21.007.316.007A8.1,8.1,0,0,0,105.508,258.865Z" transform="translate(-100.427 -249.766)" fill="#368cc1"/>
      </g>
      <path id="Trazado_909691" data-name="Trazado 909691" d="M46.586,122.908a8.15,8.15,0,0,1,6.071-7.88,8.148,8.148,0,1,0,0,15.759A8.15,8.15,0,0,1,46.586,122.908Z" transform="translate(-37.832 -69.66)" fill="#e2901a"/>
      <path id="Trazado_909692" data-name="Trazado 909692" d="M51.939,236.091c.009.1.012.207.012.313a3.816,3.816,0,0,1-1.554,3.076,25.438,25.438,0,0,1-6.074-2.77c-.009-.1-.012-.2-.012-.307a3.821,3.821,0,0,1,7.628-.313Z" transform="translate(-39.507 -174.704)" fill="#f94848"/>
      <path id="Trazado_909693" data-name="Trazado 909693" d="M46.327,236.091c-.009.1-.012.207-.012.313a3.812,3.812,0,0,0,.357,1.614,19.707,19.707,0,0,1-2.348-1.307c-.009-.1-.012-.2-.012-.307a3.82,3.82,0,0,1,4.822-3.687A3.821,3.821,0,0,0,46.327,236.091Z" transform="translate(-39.507 -174.704)" fill="#dd2c2c"/>
      <path id="Trazado_909694" data-name="Trazado 909694" d="M150.671,245.238v5.31q-1.755-.228-3.4-.551v-7.067C147.274,243.991,148.689,244.9,150.671,245.238Z" transform="translate(-131.302 -183.927)" fill="#ddc55e"/>
      <path id="Trazado_909695" data-name="Trazado 909695" d="M163.836,104.459a8.151,8.151,0,0,0-3.365-5.242,6.3,6.3,0,0,1,5.663-3.53A15.615,15.615,0,0,0,163.836,104.459Z" transform="translate(-143.068 -52.656)" fill="#e2ba14"/>
      <path id="Trazado_909696" data-name="Trazado 909696" d="M55.531,56.447c0-2.149-1.315-4.213-3.808-5.985L50.716,46.3a.921.921,0,0,0-1.651-.308L47.533,48.2c-.189-.079-.379-.154-.569-.229a9.066,9.066,0,0,0-11.641-3.478,9.28,9.28,0,0,0-.794-2.483L33.4,39.675a.921.921,0,0,0-1.23-.428L29.83,40.377l-.053.027a9.411,9.411,0,0,0-2.728-2.365L24.8,36.748a.92.92,0,0,0-1.256.34l-1.293,2.253a9.305,9.305,0,0,0-1.1,3.024,7.157,7.157,0,0,0-4.068,2.915,9.1,9.1,0,0,0-7.213-.635.921.921,0,1,0,.584,1.746,7.237,7.237,0,0,1,9.261,4.926,3.552,3.552,0,0,0-1.229,1.432,4.856,4.856,0,0,0-4.638,1.362.921.921,0,1,0,1.3,1.3,3.1,3.1,0,0,1,3.01-.851,3.556,3.556,0,0,0,.392,1.361c-2.1.519-3.5,1.672-3.5,3.079h0V60.1a7.138,7.138,0,0,1-1.852.362,4.734,4.734,0,0,0-6.412-3.127A7.224,7.224,0,0,1,8.152,47.67.921.921,0,1,0,6.98,46.25,9.064,9.064,0,0,0,5.261,58.36a4.72,4.72,0,0,0-1.173,1.964A5.374,5.374,0,0,1,1.84,56.447,4.261,4.261,0,0,1,2.851,53.83.921.921,0,1,0,1.4,52.7,6.05,6.05,0,0,0,0,56.442s0,0,0,0A27.766,27.766,0,0,0,47.67,75.8a.921.921,0,1,0-1.32-1.284A25.926,25.926,0,0,1,2.27,61.161a13.559,13.559,0,0,0,2.041,1.616,26.247,26.247,0,0,0,6.3,2.876,45.047,45.047,0,0,0,5.187,1.32A61.659,61.659,0,0,0,26.264,68.06c.477.011.982.016,1.5.016.793,0,1.59-.014,2.369-.041h.01c.628-.022,1.2-.05,1.758-.085,1.045-.063,2.106-.154,3.154-.269,1.859-.205,3.663-.49,5.362-.846,5.3-1.11,9.493-2.851,12.131-5.035.257-.213.5-.429.72-.648a25.6,25.6,0,0,1-5.3,11.539A.921.921,0,1,0,49.4,73.846,27.836,27.836,0,0,0,55.53,56.48C55.53,56.469,55.531,56.458,55.531,56.447Zm-1.841,0a3.6,3.6,0,0,1-.222,1.225l-.988-4.083A4.455,4.455,0,0,1,53.69,56.447ZM48.617,49.87l.792-1.141,2.666,11.014,0,0-2.226-2.818A.921.921,0,0,0,48.4,58.069l2.259,2.86a27.591,27.591,0,0,1-9.283,3.8l2.252-12.7,3.181,4.026a.921.921,0,0,0,1.445-1.142L46.584,52.8,48.592,49.9ZM36.009,65.712a3.607,3.607,0,0,0-.27-1.175,3.565,3.565,0,0,0,2.293-4.75l3.3-5.349-1.9,10.718C38.329,65.373,37.183,65.558,36.009,65.712Zm-7.084-13.8a1.721,1.721,0,1,1-1.215-.5A1.707,1.707,0,0,1,28.925,51.914Zm7.524,9.208a1.718,1.718,0,1,1-.5-1.215A1.707,1.707,0,0,1,36.449,61.122Zm-9.8-4.334a1.719,1.719,0,0,1,.458,1.6,3.587,3.587,0,0,0-2.138-2.037A1.719,1.719,0,0,1,26.653,56.787Zm1.3,3.733a1.718,1.718,0,1,1-.5,1.215A1.713,1.713,0,0,1,27.955,60.52Zm18.1-10.186-.662.955L43.8,49.28a.918.918,0,0,0-1.5.089h0l-5.475,8.874a3.549,3.549,0,0,0-1.89-.672,3.581,3.581,0,0,0,.042-1.158.921.921,0,1,0-1.827.232,1.718,1.718,0,1,1-1.058-1.374.921.921,0,0,0,.692-1.707,3.584,3.584,0,0,0-.758-.214,9.423,9.423,0,0,0,3.42-6.826,7.173,7.173,0,0,1,3.775-1.065A7.251,7.251,0,0,1,46.053,50.335ZM32.142,41.305l.73,1.509a7.568,7.568,0,0,1-1.86,8.982,3.554,3.554,0,0,0-.785-1.184l-.039-.038a7.217,7.217,0,0,0-2.15-6.475,7.52,7.52,0,0,1,2.594-2.065Zm-8.3-1.048.835-1.454,1.454.834A7.455,7.455,0,0,1,28.2,41.381a9.324,9.324,0,0,0-1.649,1.628,7.18,7.18,0,0,0-3.465-.9A7.506,7.506,0,0,1,23.844,40.257ZM18.6,46.319a5.387,5.387,0,0,1,9.847,3.02c0,.1,0,.206-.01.308a3.554,3.554,0,0,0-4.076,2.26c-.047-.052-.095-.1-.145-.155a3.566,3.566,0,0,0-2.764-1.033A9.028,9.028,0,0,0,18.6,46.319Zm1.885,9.166a1.721,1.721,0,0,1,0-2.431,1.678,1.678,0,0,1,.605-.391,1.718,1.718,0,0,1,1.825,2.822,1.746,1.746,0,0,1-.3.236,11.569,11.569,0,0,0-1.5-.1c-.157,0-.311,0-.463.01A1.736,1.736,0,0,1,20.49,55.485Zm.638,1.982c2.627,0,4.235.994,4.235,1.535,0,.215-.286.518-.728.771a.92.92,0,0,0,.728,1.679V66.19a59.779,59.779,0,0,1-8.471-.887V61.466a9.213,9.213,0,0,0,4.235.912,11.44,11.44,0,0,0,1.66-.119.921.921,0,1,0-.268-1.822,9.572,9.572,0,0,1-1.391.1c-2.627,0-4.235-.994-4.235-1.535S18.5,57.468,21.128,57.468Zm-6.077,7.47q-1.281-.28-2.478-.617a4.771,4.771,0,0,0,.754-2.026,8.981,8.981,0,0,0,1.724-.275v2.918Zm-3.536-3.474c.006.073.009.151.009.237a2.871,2.871,0,0,1-.838,2.039A24.628,24.628,0,0,1,5.733,61.5a2.9,2.9,0,0,1,5.783-.033ZM27.2,66.233V64.7a3.528,3.528,0,0,0,1.748.583,3.541,3.541,0,0,0-.041.937c-.382.007-.765.01-1.147.01Zm4.585-.12c-.333.021-.676.039-1.031.055a1.719,1.719,0,1,1,3.42-.246C33.382,66,32.581,66.065,31.789,66.113Z" transform="translate(0 0)"/>
      <path id="Trazado_909697" data-name="Trazado 909697" d="M353.875,124.125a.92.92,0,1,0,.395-1.023A.928.928,0,0,0,353.875,124.125Z" transform="translate(-315.465 -76.974)"/>
    </g>
  </g>
</svg>
