<svg xmlns="http://www.w3.org/2000/svg" width="99.999" height="99.999" viewBox="0 0 99.999 99.999">
  <g id="Grupo_1116917" data-name="Grupo 1116917" transform="translate(-1223.051 -5497)">
    <g id="a4" transform="translate(1228.051 5502)" fill="#fff" stroke="#ffce79" stroke-linejoin="round" stroke-width="5">
      <circle cx="44.999" cy="44.999" r="44.999" stroke="none"/>
      <circle cx="44.999" cy="44.999" r="47.499" fill="none"/>
    </g>
    <g id="inflamable" transform="translate(1180.011 5520)">
      <g id="Grupo_1116915" data-name="Grupo 1116915" transform="translate(74.844 0.8)">
        <path id="Trazado_909720" data-name="Trazado 909720" d="M117.407,48.474a4.558,4.558,0,0,1-.908-.489.427.427,0,0,1-.1-.6c1-1.406,4.51-7.233.378-15.029-2.69-5.075-3.4-7.68-3.509-8.986a.429.429,0,0,0-.764-.234,9.359,9.359,0,0,0-1.971,4.777.558.558,0,0,1-1.041.219,12.7,12.7,0,0,1-1.567-8.3c.875-5.387-1.308-10.822-6.5-12.306a.429.429,0,0,0-.494.615A7.5,7.5,0,0,1,99.463,17.5c-4.8,4.737-9.191,7.6-10.643,13.145a.43.43,0,0,1-.68.235,13.055,13.055,0,0,1-3.188-3.558.429.429,0,0,0-.793.118A29.864,29.864,0,0,0,84.8,42.438a.428.428,0,0,1-.335.55,12.455,12.455,0,0,1-2.427.184.429.429,0,0,0-.413.591C82.605,46.129,86.607,54.436,95.4,56.7h9.7c3.849-.8,9.735-2.787,12.516-7.617A.428.428,0,0,0,117.407,48.474Z" transform="translate(-81.595 -7.511)" fill="#fff1af"/>
        <g id="Grupo_1116912" data-name="Grupo 1116912" transform="translate(0)">
          <path id="Trazado_909721" data-name="Trazado 909721" d="M152.812,32.747a.43.43,0,0,0,.68-.235c1.452-5.543,5.84-8.408,10.643-13.145a7.5,7.5,0,0,0,1.466-9.361.429.429,0,0,1,.494-.615c.1.028.194.06.29.091a8.608,8.608,0,0,0-3.508-1.955.429.429,0,0,0-.494.615,7.5,7.5,0,0,1-1.466,9.361c-4.7,4.637-9,7.481-10.545,12.8A14.057,14.057,0,0,0,152.812,32.747Z" transform="translate(-143.049 -7.511)" fill="#ffeb7e"/>
          <path id="Trazado_909722" data-name="Trazado 909722" d="M84.847,210.085a.429.429,0,0,1,.413-.591,12.465,12.465,0,0,0,2.427-.184.428.428,0,0,0,.335-.55,29.827,29.827,0,0,1-.8-14.2,12.137,12.137,0,0,1-2.266-2.772.429.429,0,0,0-.793.118A29.864,29.864,0,0,0,84.8,206.9a.428.428,0,0,1-.335.55,12.453,12.453,0,0,1-2.427.184.429.429,0,0,0-.413.591c.867,2.1,4.121,8.887,11,11.965a24.49,24.49,0,0,1-7.781-10.1Z" transform="translate(-81.595 -171.969)" fill="#ffeb7e"/>
        </g>
        <path id="Trazado_909723" data-name="Trazado 909723" d="M147.715,191.043h7.952c2.573-.638,6.013-2.022,7.723-4.99a.291.291,0,0,0-.147-.414,3.086,3.086,0,0,1-.615-.331.29.29,0,0,1-.068-.405c.679-.953,3.058-4.9.257-10.191-1.824-3.441-2.306-5.208-2.38-6.093a.291.291,0,0,0-.518-.159,6.347,6.347,0,0,0-1.337,3.239.379.379,0,0,1-.706.148,8.615,8.615,0,0,1-1.063-5.629c.594-3.653-.887-7.338-4.409-8.345a.291.291,0,0,0-.335.417,5.086,5.086,0,0,1-.994,6.348c-3.257,3.212-6.233,5.155-7.217,8.913a.291.291,0,0,1-.461.159,8.854,8.854,0,0,1-2.162-2.413.291.291,0,0,0-.537.08,20.25,20.25,0,0,0,.437,10.168.29.29,0,0,1-.227.373,8.444,8.444,0,0,1-1.646.125.291.291,0,0,0-.28.4C139.622,183.994,142.173,189.3,147.715,191.043Z" transform="translate(-132.852 -141.854)" fill="#ffd500"/>
        <g id="Grupo_1116913" data-name="Grupo 1116913" transform="translate(6.108 16.008)">
          <path id="Trazado_909724" data-name="Trazado 909724" d="M186.945,175.522a.291.291,0,0,0,.461-.159c.985-3.759,3.96-5.7,7.217-8.913a5.086,5.086,0,0,0,.994-6.348.291.291,0,0,1,.335-.417,6.17,6.17,0,0,1,.672.235,5.816,5.816,0,0,0-3.041-2.045.291.291,0,0,0-.335.417,5.086,5.086,0,0,1-.994,6.348c-3.249,3.2-6.218,5.146-7.21,8.887A9.244,9.244,0,0,0,186.945,175.522Z" transform="translate(-180.138 -157.863)" fill="#fbc700"/>
          <path id="Trazado_909725" data-name="Trazado 909725" d="M141.352,295.775a.291.291,0,0,1,.28-.4,8.441,8.441,0,0,0,1.646-.125.29.29,0,0,0,.227-.373,20.245,20.245,0,0,1-.482-9.955,8.492,8.492,0,0,1-1.786-2.1.291.291,0,0,0-.537.08,20.25,20.25,0,0,0,.437,10.168.29.29,0,0,1-.227.373,8.445,8.445,0,0,1-1.646.125.291.291,0,0,0-.28.4,16.176,16.176,0,0,0,6.214,7.464A17.238,17.238,0,0,1,141.352,295.775Z" transform="translate(-138.962 -269.381)" fill="#fbc700"/>
        </g>
        <path id="Trazado_909726" data-name="Trazado 909726" d="M198.423,320.909h5.813a5.927,5.927,0,0,0,3.329-2.452.157.157,0,0,0-.08-.224,1.668,1.668,0,0,1-.333-.179.157.157,0,0,1-.037-.219,5.151,5.151,0,0,0,.139-5.515,9.79,9.79,0,0,1-1.288-3.3.158.158,0,0,0-.28-.086,3.434,3.434,0,0,0-.723,1.753.2.2,0,0,1-.382.08,4.662,4.662,0,0,1-.575-3.046c.321-1.977-.48-3.971-2.386-4.516a.157.157,0,0,0-.181.226,2.752,2.752,0,0,1-.538,3.435c-1.763,1.738-3.373,2.789-3.906,4.823a.158.158,0,0,1-.25.086,4.789,4.789,0,0,1-1.17-1.306.157.157,0,0,0-.291.043,10.959,10.959,0,0,0,.236,5.5.157.157,0,0,1-.123.2,4.579,4.579,0,0,1-.891.068.158.158,0,0,0-.152.217A8.441,8.441,0,0,0,198.423,320.909Z" transform="translate(-182.34 -271.72)" fill="#ff7f87"/>
        <g id="Grupo_1116914" data-name="Grupo 1116914" transform="translate(12.005 31.482)">
          <path id="Trazado_909727" data-name="Trazado 909727" d="M195.831,378.166a.158.158,0,0,1,.152-.217,4.561,4.561,0,0,0,.891-.068.157.157,0,0,0,.123-.2,10.958,10.958,0,0,1-.236-5.5.158.158,0,0,1,.014-.035.156.156,0,0,1-.026-.015,4.79,4.79,0,0,1-1.17-1.306.157.157,0,0,0-.291.043,10.96,10.96,0,0,0,.236,5.5.157.157,0,0,1-.123.2,4.579,4.579,0,0,1-.891.068.157.157,0,0,0-.152.217,8.9,8.9,0,0,0,3.039,3.834A9.494,9.494,0,0,1,195.831,378.166Z" transform="translate(-194.346 -363.55)" fill="#ff636e"/>
          <path id="Trazado_909728" data-name="Trazado 909728" d="M219.2,311.785a4.789,4.789,0,0,0,1.17,1.306.158.158,0,0,0,.25-.086c.533-2.034,2.143-3.085,3.906-4.823a2.752,2.752,0,0,0,.538-3.435.157.157,0,0,1,.181-.226,3.317,3.317,0,0,1,.415.15,3.169,3.169,0,0,0-1.888-1.463.157.157,0,0,0-.181.226,2.752,2.752,0,0,1-.538,3.435c-1.763,1.738-3.373,2.789-3.906,4.823a.163.163,0,0,1-.012.031A.158.158,0,0,1,219.2,311.785Z" transform="translate(-216.49 -303.201)" fill="#ff636e"/>
        </g>
        <path id="Trazado_909729" data-name="Trazado 909729" d="M147.8,468.512H120.552a.9.9,0,0,0-.895.895v2.044a.9.9,0,0,0,.895.895H147.8a.9.9,0,0,0,.895-.895v-2.044A.9.9,0,0,0,147.8,468.512Z" transform="translate(-115.605 -419.429)" fill="#938493"/>
        <path id="Trazado_909730" data-name="Trazado 909730" d="M127.609,471.45v-2.043a.9.9,0,0,1,.895-.895h-7.952a.9.9,0,0,0-.895.895v2.043a.9.9,0,0,0,.895.895H128.5A.9.9,0,0,1,127.609,471.45Z" transform="translate(-115.605 -419.429)" fill="#7b6c79"/>
      </g>
      <g id="Grupo_1116916" data-name="Grupo 1116916" transform="translate(74.039 0)">
        <path id="Trazado_909731" data-name="Trazado 909731" d="M75.307,35.663a1.228,1.228,0,0,0-1.174,1.694c.883,2.139,3.94,8.462,10.274,11.833H79.786a1.7,1.7,0,0,0-1.693,1.693v1.937a1.7,1.7,0,0,0,1.693,1.693h27.253a1.7,1.7,0,0,0,1.693-1.693V50.884a1.7,1.7,0,0,0-1.693-1.693H103.7a15.8,15.8,0,0,0,7.855-6.42,1.228,1.228,0,0,0-.612-1.75,3.833,3.833,0,0,1-.433-.206,14.252,14.252,0,0,0,2.027-5.111,15.742,15.742,0,0,0-1.815-10.431c-2.643-4.988-3.318-7.472-3.419-8.678a1.228,1.228,0,0,0-2.185-.664,10.163,10.163,0,0,0-2.032,4.461,11.709,11.709,0,0,1-1.133-7.141c.94-5.786-1.47-11.6-7.07-13.2a1.228,1.228,0,0,0-1.418,1.759,6.687,6.687,0,0,1-1.322,8.417C87.5,14.8,83.1,17.743,81.445,23.192a11.821,11.821,0,0,1-2.557-2.976,1.228,1.228,0,0,0-2.265.344,30.893,30.893,0,0,0,.535,14.995,11.271,11.271,0,0,1-1.851.108Zm31.732,15.125a.1.1,0,0,1,.1.1v1.937a.1.1,0,0,1-.1.1H79.786a.1.1,0,0,1-.1-.1V50.884a.1.1,0,0,1,.1-.1ZM77.849,37.064a1.227,1.227,0,0,0,.959-1.579A29.12,29.12,0,0,1,78,21.8a14.551,14.551,0,0,0,2.887,3,1.229,1.229,0,0,0,1.944-.661c1.385-5.286,5.594-8.008,10.431-12.778a8.187,8.187,0,0,0,1.993-9.5c4.463,1.784,5.806,6.907,5.119,11.132a13.415,13.415,0,0,0,1.661,8.824,1.358,1.358,0,0,0,2.528-.525,8.536,8.536,0,0,1,1.283-3.639,34.613,34.613,0,0,0,3.462,8.366c3.874,7.309.732,12.711-.323,14.192a1.225,1.225,0,0,0,.293,1.715,5.242,5.242,0,0,0,.676.4,13.241,13.241,0,0,1-4.806,4.362,8.728,8.728,0,0,0,.914-1.294,1.09,1.09,0,0,0-.542-1.554l-.017-.007a10.338,10.338,0,0,0,0-10.554c-1.865-3.52-2.235-5.136-2.289-5.786a1.09,1.09,0,0,0-1.939-.589,7.165,7.165,0,0,0-1.249,2.39,7.57,7.57,0,0,1-.443-4.006c.715-4.4-1.332-8.2-4.978-9.241a1.089,1.089,0,0,0-1.259,1.561,4.293,4.293,0,0,1-.85,5.4c-.574.566-1.14,1.093-1.666,1.577a.8.8,0,1,0,1.082,1.175c.537-.494,1.114-1.032,1.705-1.615a5.743,5.743,0,0,0,1.63-6.125c2.451,1.343,3.178,4.43,2.759,7.008a9.35,9.35,0,0,0,1.157,6.152,1.178,1.178,0,0,0,2.193-.454,5.523,5.523,0,0,1,.521-1.8,27.7,27.7,0,0,0,2.215,5.1c2.558,4.826.492,8.38-.2,9.354a1.087,1.087,0,0,0,.261,1.523q.115.081.238.153a9.343,9.343,0,0,1-3.729,3.022c.03-.049.061-.1.09-.146a.955.955,0,0,0-.139-1.138,5.813,5.813,0,0,0,.592-1.818.8.8,0,0,0-1.579-.237,4.04,4.04,0,0,1-.666,1.708.963.963,0,0,0-.163.718.948.948,0,0,0,.223.468A5.472,5.472,0,0,1,96.6,49.191H91.1a7.3,7.3,0,0,1-3.108-3.1l.047-.008a.955.955,0,0,0,.747-1.231,9.922,9.922,0,0,1-.414-3.7c.147.136.281.247.385.328a.956.956,0,0,0,1.514-.512c.464-1.769,1.958-2.745,3.694-4.457A3.611,3.611,0,0,0,95.11,33.86a3.678,3.678,0,0,1,.607,2.816,5.422,5.422,0,0,0,.669,3.569,1,1,0,0,0,1.831-.2q.277.659.689,1.458a.8.8,0,0,0,1.419-.733,8.464,8.464,0,0,1-1.064-2.733.957.957,0,0,0-1.7-.516,4.23,4.23,0,0,0-.291.416,3.648,3.648,0,0,1,.024-1c.417-2.57-.8-4.8-2.954-5.411a.957.957,0,0,0-1.105,1.369,1.954,1.954,0,0,1-.394,2.491c-1.517,1.5-2.986,2.533-3.765,4.209a3.108,3.108,0,0,1-.306-.435.956.956,0,0,0-1.763.27,11.959,11.959,0,0,0,.042,5.145H87.03a.956.956,0,0,0-.912,1.32,10.333,10.333,0,0,0,1.206,2.116,15.193,15.193,0,0,1-5.31-6.232,9.491,9.491,0,0,0,1.019-.121,1.089,1.089,0,0,0,.851-1.4,19.385,19.385,0,0,1-.633-8.568,10.47,10.47,0,0,0,1.643,1.6,1.09,1.09,0,0,0,1.726-.586,9.787,9.787,0,0,1,2.642-4.4A.8.8,0,1,0,88.1,27.2a12.055,12.055,0,0,0-2.8,4.336,7.417,7.417,0,0,1-1.388-1.694,1.09,1.09,0,0,0-2.01.307,21.267,21.267,0,0,0,.282,10,7.208,7.208,0,0,1-.916.036,1.09,1.09,0,0,0-1.041,1.5,18.348,18.348,0,0,0,3.123,4.98,23.328,23.328,0,0,1-7.523-9.415,13.454,13.454,0,0,0,2.018-.2Z" transform="translate(-74.039 0)"/>
      </g>
    </g>
  </g>
</svg>
