<svg xmlns="http://www.w3.org/2000/svg" width="99.999" height="99.999" viewBox="0 0 99.999 99.999">
  <g id="Grupo_1116911" data-name="Grupo 1116911" transform="translate(-908.051 -5497)">
    <g id="a3" transform="translate(913.051 5502)" fill="#fff" stroke="#ffce79" stroke-linejoin="round" stroke-width="5">
      <circle cx="44.999" cy="44.999" r="44.999" stroke="none"/>
      <circle cx="44.999" cy="44.999" r="47.499" fill="none"/>
    </g>
    <g id="termometro" transform="translate(829.838 5519)">
      <g id="Grupo_1116909" data-name="Grupo 1116909" transform="translate(114.021 0.808)">
        <path id="Trazado_909704" data-name="Trazado 909704" d="M142.105,50.358a10.7,10.7,0,0,1-9.8,10.659c-.345.029-.7.042-1.049.037a10.7,10.7,0,0,1-5.235-19.939V12.885a5.388,5.388,0,1,1,10.777,0V41.115A10.7,10.7,0,0,1,142.105,50.358Z" transform="translate(-120.71 -7.497)" fill="#e9f5ff"/>
        <g id="Grupo_1116905" data-name="Grupo 1116905" transform="translate(9.055)">
          <path id="Trazado_909705" data-name="Trazado 909705" d="M217.078,50.358a10.7,10.7,0,0,1-9.8,10.659,4.023,4.023,0,0,1,.01-.776,10.7,10.7,0,0,0,6.559-9.867c0-3.943-2.134-6.526-5.309-8.381V12.9a5.39,5.39,0,0,0-3.8-5.149,5.391,5.391,0,0,1,7.031,5.133V41.115A10.7,10.7,0,0,1,217.078,50.358Z" transform="translate(-204.739 -7.497)" fill="#bde2ef"/>
        </g>
        <g id="Grupo_1116906" data-name="Grupo 1116906" transform="translate(3.233 3.249)">
          <path id="Trazado_909706" data-name="Trazado 909706" d="M161.931,70.823a3.234,3.234,0,0,1-1.6-2.791V39.8a2.155,2.155,0,1,0-4.311,0V68.032a3.233,3.233,0,0,1-1.6,2.791,7.464,7.464,0,1,0,7.515,0Z" transform="translate(-150.709 -37.647)" fill="#ff6e6e"/>
        </g>
        <g id="Grupo_1116907" data-name="Grupo 1116907" transform="translate(9.982 3.249)">
          <path id="Trazado_909707" data-name="Trazado 909707" d="M217.811,70.823a3.234,3.234,0,0,1-1.6-2.791V39.8a2.157,2.157,0,0,0-2.871-2.034,2.151,2.151,0,0,1,.716,1.6V70.079a3.234,3.234,0,0,0,1.6,2.791,7.5,7.5,0,0,1,3.707,6.452,7.4,7.4,0,0,1-1.347,4.28,7.468,7.468,0,0,0-.2-12.78Z" transform="translate(-213.339 -37.647)" fill="#f44e92"/>
        </g>
        <path id="Trazado_909708" data-name="Trazado 909708" d="M204.29,39.8v8.356h-4.311V39.8a2.155,2.155,0,1,1,4.311,0Z" transform="translate(-191.437 -34.398)" fill="#4f667a"/>
        <g id="Grupo_1116908" data-name="Grupo 1116908" transform="translate(9.982 3.249)">
          <path id="Trazado_909709" data-name="Trazado 909709" d="M214.055,37.647a2.155,2.155,0,0,0-.716.122,2.151,2.151,0,0,1,.716,1.6v8.787h2.155V39.8A2.158,2.158,0,0,0,214.055,37.647Z" transform="translate(-213.339 -37.647)" fill="#3a5366"/>
        </g>
      </g>
      <g id="Grupo_1116910" data-name="Grupo 1116910" transform="translate(113.213 0)">
        <path id="Trazado_909710" data-name="Trazado 909710" d="M308.8,47.676h8.166a.808.808,0,0,0,0-1.617H308.8a.808.808,0,1,0,0,1.617Z" transform="translate(-287.002 -41.096)"/>
        <path id="Trazado_909711" data-name="Trazado 909711" d="M308.8,82.305h4.083a.808.808,0,0,0,0-1.617H308.8a.808.808,0,0,0,0,1.617Z" transform="translate(-287.002 -71.993)"/>
        <path id="Trazado_909712" data-name="Trazado 909712" d="M316.967,115.689H308.8a.808.808,0,0,0,0,1.617h8.166a.808.808,0,0,0,0-1.617Z" transform="translate(-287.002 -103.222)"/>
        <path id="Trazado_909713" data-name="Trazado 909713" d="M308.8,151.933h4.083a.808.808,0,0,0,0-1.616H308.8a.808.808,0,0,0,0,1.616Z" transform="translate(-287.002 -134.118)"/>
        <path id="Trazado_909714" data-name="Trazado 909714" d="M316.967,184.8H308.8a.808.808,0,0,0,0,1.616h8.166a.808.808,0,0,0,0-1.616Z" transform="translate(-287.002 -164.887)"/>
        <path id="Trazado_909715" data-name="Trazado 909715" d="M308.8,221.049h4.083a.808.808,0,0,0,0-1.616H308.8a.808.808,0,0,0,0,1.616Z" transform="translate(-287.002 -195.785)"/>
        <path id="Trazado_909716" data-name="Trazado 909716" d="M316.967,254.568H308.8a.808.808,0,0,0,0,1.617h8.166a.808.808,0,0,0,0-1.617Z" transform="translate(-287.002 -227.134)"/>
        <path id="Trazado_909717" data-name="Trazado 909717" d="M312.884,289.2H308.8a.808.808,0,0,0,0,1.617h4.083a.808.808,0,0,0,0-1.617Z" transform="translate(-287.002 -258.031)"/>
        <path id="Trazado_909718" data-name="Trazado 909718" d="M130.915,33.866V13.042a.808.808,0,1,0-1.616,0V34.318a.808.808,0,0,0,.4.7,10.028,10.028,0,0,1,4.908,8.653,9.889,9.889,0,0,1-19.775.241,10,10,0,0,1,4.905-8.894.808.808,0,0,0,.4-.7V6.2a4.58,4.58,0,1,1,9.16,0V9.288a.808.808,0,0,0,1.617,0V6.2a6.2,6.2,0,1,0-12.393,0V33.865a11.628,11.628,0,0,0-5.306,10.083,11.538,11.538,0,0,0,11.339,11.225h.165a11.505,11.505,0,0,0,11.5-11.505,11.664,11.664,0,0,0-5.309-9.8Z" transform="translate(-113.213 0)"/>
        <path id="Trazado_909719" data-name="Trazado 909719" d="M148.135,64.83a4.055,4.055,0,0,0,2-3.489V58.715a.808.808,0,0,0-1.617,0v2.626a2.433,2.433,0,0,1-1.2,2.094,8.279,8.279,0,0,0,4.047,15.421h.11a8.272,8.272,0,0,0,8.28-8.272,8.311,8.311,0,0,0-4.107-7.149,2.433,2.433,0,0,1-1.2-2.094V33.112a2.964,2.964,0,1,0-5.927,0V54.926a.808.808,0,1,0,1.616,0V42.276h2.694V61.341a4.055,4.055,0,0,0,2,3.489,6.689,6.689,0,0,1,3.306,5.754,6.656,6.656,0,1,1-10.006-5.754Zm2-24.171V33.112a1.347,1.347,0,1,1,2.694,0V40.66Z" transform="translate(-139.979 -26.899)"/>
      </g>
    </g>
  </g>
</svg>
