<svg xmlns="http://www.w3.org/2000/svg" width="90" height="90" viewBox="0 0 90 90">
  <g id="Grupo_1127015" data-name="Grupo 1127015" transform="translate(-410.051 -5815)">
    <g id="Grupo_1127124" data-name="Grupo 1127124">
      <g id="Grupo_1106802" data-name="Grupo 1106802" transform="translate(0.479 -4083)">
        <g id="Grupo_1106801" data-name="Grupo 1106801">
          <circle id="Elipse_12309" data-name="Elipse 12309" cx="45" cy="45" r="45" transform="translate(409.571 9898)" fill="#6f9246"/>
        </g>
      </g>
      <g id="mermelada" transform="translate(428.051 5835)">
        <g id="Grupo_1127013" data-name="Grupo 1127013" transform="translate(11.776 0.776)">
          <path id="Trazado_916743" data-name="Trazado 916743" d="M21.314,42.328A6.194,6.194,0,0,1,21.767,40H12v6.985H23.424A6.189,6.189,0,0,1,21.314,42.328Z" transform="translate(-12 -9.73)" fill="#cea98a"/>
          <path id="Trazado_916744" data-name="Trazado 916744" d="M38.937,40a6.192,6.192,0,0,1-1.656,6.985H48.705V40Z" transform="translate(-17.659 -9.73)" fill="#cea98a"/>
          <path id="Trazado_916745" data-name="Trazado 916745" d="M24.271,33.677a4.636,4.636,0,0,1-1.4-4.02s4.657-1.552,4.657,3.1a6.207,6.207,0,0,1,5.754,3.881h9.769V31.985H36.837C35.277,27.872,31.66,25,27.523,25s-7.754,2.872-9.314,6.985H12v4.657h9.767A6.227,6.227,0,0,1,24.271,33.677Z" transform="translate(-12 -6.372)" fill="#d8c4af"/>
          <path id="Trazado_916746" data-name="Trazado 916746" d="M27.523,50.552A6.181,6.181,0,0,1,23.424,49H12v5.433H43.046V49H31.622a6.181,6.181,0,0,1-4.1,1.552Z" transform="translate(-12 -11.745)" fill="#d8c4af"/>
          <path id="Trazado_916747" data-name="Trazado 916747" d="M41.389,3.328V5.657a1.557,1.557,0,0,1-1.552,1.552H16.552A1.564,1.564,0,0,1,15,5.657V3.328A2.325,2.325,0,0,1,17.328,1H39.061A2.325,2.325,0,0,1,41.389,3.328Z" transform="translate(-12.672 -1)" fill="#b8926a"/>
          <path id="Trazado_916748" data-name="Trazado 916748" d="M39.165,9l3.881,5.433a2.871,2.871,0,0,1-2.328,1.552,2.624,2.624,0,0,1-2.1-1.164,2.7,2.7,0,0,0-4.44,0,2.691,2.691,0,0,1-4.432,0,2.7,2.7,0,0,0-4.44,0,2.691,2.691,0,0,1-4.432,0,2.7,2.7,0,0,0-4.44,0,2.624,2.624,0,0,1-2.1,1.164A2.871,2.871,0,0,1,12,14.433L15.881,9Z" transform="translate(-12 -2.791)" fill="#e6d7c2"/>
          <path id="Trazado_916749" data-name="Trazado 916749" d="M43.046,27.418v2.328H36.837c-1.56-4.114-5.177-6.985-9.314-6.985s-7.754,2.872-9.314,6.985H12V27.418a23.059,23.059,0,0,1,2.328-10.09,2.624,2.624,0,0,0,2.1-1.164,2.7,2.7,0,0,1,4.44,0,2.691,2.691,0,0,0,4.432,0,2.7,2.7,0,0,1,4.44,0,2.691,2.691,0,0,0,4.432,0,2.7,2.7,0,0,1,4.44,0,2.624,2.624,0,0,0,2.1,1.164A23.058,23.058,0,0,1,43.046,27.418Z" transform="translate(-12 -4.134)" fill="#ff964c"/>
          <path id="Trazado_916750" data-name="Trazado 916750" d="M25.986,30.928s4.657-1.552,4.657,3.1a6.249,6.249,0,0,0-3.252.916A4.636,4.636,0,0,1,25.986,30.928Z" transform="translate(-15.12 -7.644)" fill="#779322"/>
          <path id="Trazado_916751" data-name="Trazado 916751" d="M26.957,35.916A6.212,6.212,0,1,1,24,41.209,6.249,6.249,0,0,1,26.957,35.916Z" transform="translate(-14.686 -8.611)" fill="#ed7132"/>
          <path id="Trazado_916752" data-name="Trazado 916752" d="M30.209,44.769a6.207,6.207,0,0,1-5.892-4.256A6.205,6.205,0,1,0,36.1,40.5,6.205,6.205,0,0,1,30.209,44.769Z" transform="translate(-14.686 -9.842)" fill="#dd5c2f"/>
          <path id="Trazado_916753" data-name="Trazado 916753" d="M12,56H43.046a5.429,5.429,0,0,1-5.433,5.433H17.433A5.429,5.429,0,0,1,12,56Z" transform="translate(-12 -13.312)" fill="#ff964c"/>
          <path id="Trazado_916754" data-name="Trazado 916754" d="M15,5V6.552A1.564,1.564,0,0,0,16.552,8.1H39.837a1.557,1.557,0,0,0,1.552-1.552V5Z" transform="translate(-12.672 -1.895)" fill="#a67745"/>
          <g id="Grupo_1127012" data-name="Grupo 1127012" transform="translate(0 16.701)">
            <path id="Trazado_916755" data-name="Trazado 916755" d="M37.613,59.1H17.433A6.252,6.252,0,0,1,12,56a5.429,5.429,0,0,0,5.433,5.433h20.18A5.429,5.429,0,0,0,43.046,56,6.252,6.252,0,0,1,37.613,59.1Z" transform="translate(-12 -30.013)" fill="#d37532"/>
            <circle id="Elipse_12334" data-name="Elipse 12334" cx="1.15" cy="1.15" r="1.15" transform="translate(26.82 3.45)" fill="#d37532"/>
            <circle id="Elipse_12335" data-name="Elipse 12335" cx="1.15" cy="1.15" r="1.15" transform="translate(24.521 0)" fill="#d37532"/>
            <circle id="Elipse_12336" data-name="Elipse 12336" cx="0.575" cy="0.575" r="0.575" transform="translate(22.221 0)" fill="#d37532"/>
          </g>
        </g>
        <g id="Grupo_1127014" data-name="Grupo 1127014" transform="translate(11 0)">
          <path id="Trazado_916756" data-name="Trazado 916756" d="M41.607,14.533a4,4,0,0,0,1.91-1.767.775.775,0,0,0-.063-.8L40.187,7.394A2.324,2.324,0,0,0,41.27,5.433V3.1a3.108,3.108,0,0,0-3.1-3.1H16.433a3.108,3.108,0,0,0-3.1,3.1V5.433a2.273,2.273,0,0,0,.678,1.636,2.3,2.3,0,0,0,.4.324l-3.267,4.574a.777.777,0,0,0-.063.8,4,4,0,0,0,1.91,1.767A24,24,0,0,0,11,24.061v19.4a6.216,6.216,0,0,0,6.209,6.209h20.18A6.216,6.216,0,0,0,43.6,43.464v-19.4a24,24,0,0,0-1.992-9.528ZM12.552,42.688V38.807h5.433a.776.776,0,0,0,0-1.552H12.552V31.822h5.433a.776.776,0,1,0,0-1.552H12.552v-3.1h5.433a.775.775,0,0,0,.726-.5c1.494-3.939,4.865-6.484,8.588-6.484s7.094,2.545,8.588,6.484a.775.775,0,0,0,.726.5h5.433v3.1H36.613a.776.776,0,1,0,0,1.552h5.433v5.433H36.613a.776.776,0,1,0,0,1.552h5.433v3.881ZM14.881,3.1a1.554,1.554,0,0,1,1.552-1.552H38.165A1.554,1.554,0,0,1,39.717,3.1V5.433a.777.777,0,0,1-.776.776H15.657a.756.756,0,0,1-.553-.238.743.743,0,0,1-.224-.539Zm-2.162,9.33,3.338-4.673H38.542l3.337,4.673a1.677,1.677,0,0,1-2.854-.074,3.475,3.475,0,0,0-5.712,0,1.915,1.915,0,0,1-3.16,0,3.474,3.474,0,0,0-5.711,0,1.914,1.914,0,0,1-3.16,0,3.475,3.475,0,0,0-5.712,0,1.858,1.858,0,0,1-1.467.832,1.843,1.843,0,0,1-1.386-.76ZM14.625,14.7a3.444,3.444,0,0,0,2.219-1.445,1.923,1.923,0,0,1,3.168,0,3.484,3.484,0,0,0,2.848,1.5,3.449,3.449,0,0,0,2.856-1.5,1.922,1.922,0,0,1,3.167,0,3.447,3.447,0,0,0,2.855,1.495,3.485,3.485,0,0,0,2.848-1.495,1.922,1.922,0,0,1,3.167,0,3.442,3.442,0,0,0,2.22,1.446,22.313,22.313,0,0,1,2.072,9.364v1.552H37.137A10.887,10.887,0,0,0,27.3,18.628a10.887,10.887,0,0,0-9.838,6.985H12.552V24.061A22.313,22.313,0,0,1,14.625,14.7ZM37.389,48.121H17.209a4.661,4.661,0,0,1-4.587-3.881H41.976A4.661,4.661,0,0,1,37.389,48.121Z" transform="translate(-11 0)" fill="#252525"/>
          <path id="Trazado_916757" data-name="Trazado 916757" d="M15.9,27.989l.062,0a.776.776,0,0,0,.773-.715,18.652,18.652,0,0,1,1.473-5.958.776.776,0,1,0-1.421-.623,20.23,20.23,0,0,0-1.6,6.46A.777.777,0,0,0,15.9,27.989Z" transform="translate(-11.938 -4.529)" fill="#252525"/>
          <path id="Trazado_916758" data-name="Trazado 916758" d="M30.781,32.93a5.357,5.357,0,0,1,.557-2.633.776.776,0,0,0-1.125-1.068,2.971,2.971,0,0,0-.615,1.219A3.088,3.088,0,0,0,29.3,30.2c-1.681-1.212-4.117-.421-4.221-.387a.777.777,0,0,0-.515.584,5.423,5.423,0,0,0,1.014,4.038,6.992,6.992,0,1,0,5.2-1.51ZM28.4,31.461a2.1,2.1,0,0,1,.764,1.476,7.044,7.044,0,0,0-2.257.675,3.859,3.859,0,0,1-.849-2.441A3.186,3.186,0,0,1,28.4,31.461ZM29.985,45.3a5.435,5.435,0,0,1-2.849-10.063,5.5,5.5,0,0,1,2.849-.8,5.433,5.433,0,0,1,0,10.866Z" transform="translate(-13.686 -6.492)" fill="#252525"/>
          <path id="Trazado_916759" data-name="Trazado 916759" d="M30.881,38A3.885,3.885,0,0,0,27,41.881a.776.776,0,1,0,1.552,0,2.331,2.331,0,0,1,2.328-2.328.776.776,0,0,0,0-1.552Z" transform="translate(-14.582 -8.506)" fill="#252525"/>
          <ellipse id="Elipse_12337" data-name="Elipse 12337" cx="1.15" cy="0.575" rx="1.15" ry="0.575" transform="translate(14.948 35.875)" fill="#252525"/>
        </g>
      </g>
    </g>
  </g>
</svg>
