<svg xmlns="http://www.w3.org/2000/svg" width="90" height="90" viewBox="0 0 90 90">
  <g id="Grupo_1127002" data-name="Grupo 1127002" transform="translate(-410.051 -12824)">
    <g id="Grupo_1116823" data-name="Grupo 1116823" transform="translate(0.479 2926)">
      <g id="Grupo_1106801" data-name="Grupo 1106801">
        <circle id="Elipse_12309" data-name="Elipse 12309" cx="45" cy="45" r="45" transform="translate(409.571 9898)" fill="#6f9246"/>
      </g>
    </g>
    <g id="comida-enlatada" transform="translate(418.22 12847.004)">
      <g id="Grupo_1127000" data-name="Grupo 1127000" transform="translate(16.2 0.669)">
        <path id="Trazado_916715" data-name="Trazado 916715" d="M38.562,23.031H63.5V64.147H38.562Z" transform="translate(-37.177 -21.646)" fill="#fcd258"/>
        <path id="Trazado_916716" data-name="Trazado 916716" d="M38.562,23.031h2.771V64.147H38.562Z" transform="translate(-37.177 -21.646)" fill="#f9b044"/>
        <path id="Trazado_916717" data-name="Trazado 916717" d="M72.4,122.061a2.771,2.771,0,0,0-2.771,2.771v29.512h19.4v-29.45a2.771,2.771,0,0,0-2.771-2.771Z" transform="translate(-65.469 -111.842)" fill="#ffeabb"/>
        <ellipse id="Elipse_12333" data-name="Elipse 12333" cx="6.927" cy="3.985" rx="6.927" ry="3.985" transform="translate(6.927 6.296)" fill="#e94442"/>
        <path id="Trazado_916718" data-name="Trazado 916718" d="M103.363,82.074c0-1.937,2.4-3.552,5.589-3.91-4.1-.462-8.265,1.3-8.265,3.91,0,2.737,4.375,4.348,8.265,3.91-3.185-.358-5.589-1.973-5.589-3.91Z" transform="translate(-93.76 -71.794)" fill="#cf3636"/>
        <path id="Trazado_916719" data-name="Trazado 916719" d="M23.031,7.5H50.739v2.771H23.031Z" transform="translate(-23.031 -7.5)" fill="#edf1e9"/>
        <path id="Trazado_916720" data-name="Trazado 916720" d="M23.031,7.5h2.676v2.771H23.031Z" transform="translate(-23.031 -7.5)" fill="#e3eadb"/>
        <path id="Trazado_916721" data-name="Trazado 916721" d="M23.031,473.434H50.739V476.2H23.031Z" transform="translate(-23.031 -431.872)" fill="#ebede7"/>
        <path id="Trazado_916722" data-name="Trazado 916722" d="M23.031,473.434h2.676V476.2H23.031Z" transform="translate(-23.031 -431.872)" fill="#e3eadb"/>
        <path id="Trazado_916723" data-name="Trazado 916723" d="M275.393,347.063H256v-3.711l1.506-2.765L256,337.81v-4.156h19.4Z" transform="translate(-235.217 -304.561)" fill="#e94442"/>
        <path id="Trazado_916724" data-name="Trazado 916724" d="M260.18,340.586l-1.506-2.776v-4.156H256v4.156l1.506,2.776L256,343.352v3.711h2.676v-3.711Z" transform="translate(-235.217 -304.561)" fill="#cf3636"/>
        <path id="Trazado_916725" data-name="Trazado 916725" d="M256,380.247h11.083v5.542H256Z" transform="translate(-235.217 -346.998)" fill="#fcd258"/>
        <path id="Trazado_916726" data-name="Trazado 916726" d="M256,380.247h2.676v5.542H256Z" transform="translate(-235.217 -346.998)" fill="#f9b044"/>
        <path id="Trazado_916727" data-name="Trazado 916727" d="M240.467,318.123h22.166v2.771H240.467Z" transform="translate(-221.072 -290.415)" fill="#edf1e9"/>
        <path id="Trazado_916728" data-name="Trazado 916728" d="M240.467,473.434h22.166V476.2H240.467Z" transform="translate(-221.072 -431.872)" fill="#ebede7"/>
        <g id="Grupo_1126999" data-name="Grupo 1126999" transform="translate(19.395 27.708)">
          <path id="Trazado_916729" data-name="Trazado 916729" d="M240.467,318.123h2.676v2.771h-2.676Z" transform="translate(-240.467 -318.123)" fill="#e3eadb"/>
          <path id="Trazado_916730" data-name="Trazado 916730" d="M240.467,473.434h2.676V476.2h-2.676Z" transform="translate(-240.467 -459.58)" fill="#e3eadb"/>
        </g>
      </g>
      <g id="Grupo_1127001" data-name="Grupo 1127001" transform="translate(15.531 0)">
        <path id="Trazado_916731" data-name="Trazado 916731" d="M57.045,31.817h.716a.669.669,0,0,0,.669-.669V28.377a.669.669,0,0,0-.669-.669H43.191V4.109h.716a.669.669,0,0,0,.669-.669V.669A.669.669,0,0,0,43.908,0H16.2a.669.669,0,0,0-.669.669V3.44a.669.669,0,0,0,.669.669h.716v6.44a.669.669,0,1,0,1.338,0V4.109h23.6v23.6H40.421V19.872a.669.669,0,1,0-1.338,0v7.836H35.6a.669.669,0,0,0-.669.669v2.771a.669.669,0,0,0,.669.669h.716v9.745H21.025v-27.9a2.105,2.105,0,0,1,1.512-2.018c.53,2.27,3.641,3.962,7.516,3.962,3.842,0,6.934-1.663,7.5-3.9a2.106,2.106,0,0,1,1.526,2.022v3.236a.669.669,0,1,0,1.338,0V13.72a3.445,3.445,0,0,0-2.834-3.386C37.109,8.026,33.972,6.3,30.054,6.3c-3.882,0-7,1.7-7.519,3.974a3.445,3.445,0,0,0-2.848,3.389v27.9H18.254V13.4a.669.669,0,1,0-1.338,0V41.562H16.2a.669.669,0,0,0-.669.669V45a.669.669,0,0,0,.669.669H57.762A.669.669,0,0,0,58.431,45V42.231a.669.669,0,0,0-.669-.669h-.716ZM16.869,2.771V1.338h26.37V2.771ZM30.054,7.634c3.392,0,6.258,1.518,6.258,3.316s-2.866,3.316-6.258,3.316S23.8,12.747,23.8,10.95,26.662,7.634,30.054,7.634Zm6.211,21.412H57.093v1.433H36.264ZM16.869,42.9H34.926v1.433H16.869Zm40.224,1.433H36.264V42.9H57.093ZM37.65,41.562V40.129h4.423a.669.669,0,1,0,0-1.338H37.65v-4.2h9.745v4.2H44.989a.669.669,0,0,0,0,1.338h3.075a.669.669,0,0,0,.669-.669V33.918a.669.669,0,0,0-.669-.669H37.65V31.817H55.707v1.849H50.835a.669.669,0,0,0,0,1.338h4.873v1.023H50.835a.669.669,0,1,0,0,1.338h4.873v1.023H50.835a.669.669,0,1,0,0,1.338h4.873v1.837H37.65Z" transform="translate(-15.531 0)"/>
        <path id="Trazado_916732" data-name="Trazado 916732" d="M120.47,217.436H109.387a.669.669,0,1,0,0,1.338H120.47a.669.669,0,1,0,0-1.338Z" transform="translate(-100.406 -198.041)"/>
        <path id="Trazado_916733" data-name="Trazado 916733" d="M121.139,249.167a.669.669,0,0,0-.669-.669H109.387a.669.669,0,1,0,0,1.338H120.47A.669.669,0,0,0,121.139,249.167Z" transform="translate(-100.406 -226.332)"/>
        <path id="Trazado_916734" data-name="Trazado 916734" d="M140.449,279.561a.669.669,0,1,0,0,1.338h5.542a.669.669,0,1,0,0-1.338Z" transform="translate(-128.697 -254.624)"/>
      </g>
    </g>
  </g>
</svg>
