<svg xmlns="http://www.w3.org/2000/svg" width="82" height="82" viewBox="0 0 82 82">
  <g id="Grupo_1116919" data-name="Grupo 1116919" transform="translate(-392.05 -3514)">
    <g id="Grupo_1106486" data-name="Grupo 1106486" transform="translate(381.898 3503.941)">
      <g id="Elipse_157" data-name="Elipse 157" transform="translate(15.151 15.059)" fill="#fff" stroke="#ffce79" stroke-linejoin="round" stroke-width="5">
        <circle cx="36" cy="36" r="36" stroke="none"/>
        <circle cx="36" cy="36" r="38.5" fill="none"/>
      </g>
    </g>
    <g id="mermelada-de-manzana_1_" data-name="mermelada-de-manzana (1)" transform="translate(390.15 3496.801)">
      <g id="Capa_1" transform="translate(23.9 40.199)">
        <g id="Filled_Expand" transform="translate(0 0)">
          <path id="Trazado_909747" data-name="Trazado 909747" d="M382.524,208.524a5.121,5.121,0,0,0-1.16,3.487,4.1,4.1,0,0,0,4.647-4.647A5.121,5.121,0,0,0,382.524,208.524Z" transform="translate(-351.96 -193.612)" fill="#80d765"/>
          <path id="Trazado_909748" data-name="Trazado 909748" d="M32,118.372V121a5.269,5.269,0,0,0,5.264,5.264h13.16A5.269,5.269,0,0,0,55.688,121v-2.632l-1.316-4.606,1.316-5.922v-3.158a4.388,4.388,0,0,0-1.645-3.422A4.388,4.388,0,0,1,52.4,97.842V96H35.29v1.842a4.388,4.388,0,0,1-1.645,3.422A4.388,4.388,0,0,0,32,104.685v3.158l1.316,5.264Z" transform="translate(-31.334 -91.41)" fill="#f66f7f"/>
          <path id="Trazado_909749" data-name="Trazado 909749" d="M70.372,121v-2.632l-1.316-4.606,1.316-5.922v-3.158a4.388,4.388,0,0,0-1.645-3.422,4.388,4.388,0,0,1-1.645-3.422V96H51.29v1.842a4.388,4.388,0,0,1-1.645,3.422A4.388,4.388,0,0,0,48,104.685V121a5.269,5.269,0,0,0,5.264,5.264H65.108A5.269,5.269,0,0,0,70.372,121Z" transform="translate(-46.018 -91.41)" fill="#f03c5a"/>
          <path id="Trazado_909750" data-name="Trazado 909750" d="M65.606,101.264a4.388,4.388,0,0,1-1.645-3.422V96H46.854v1.842a4.388,4.388,0,0,1-1.645,3.422,4.2,4.2,0,0,0-.609.6h0a3.755,3.755,0,0,0,5.807,0c.452-.461.617-.6,1.045-.6s.584.148,1.045.6a3.758,3.758,0,0,0,5.289.518,3.856,3.856,0,0,0,.518-.518c.461-.461.625-.6,1.045-.6s.584.148,1.045.6a3.769,3.769,0,0,0,5.3.518,3.857,3.857,0,0,0,.518-.518h0a4.2,4.2,0,0,0-.609-.6h.008Z" transform="translate(-42.897 -91.41)" fill="#e61c46"/>
          <path id="Trazado_909751" data-name="Trazado 909751" d="M46.525,101.264a4.388,4.388,0,0,0,1.645-3.422V96H46.854v1.842a4.388,4.388,0,0,1-1.645,3.422,4.2,4.2,0,0,0-.609.6h0a6.181,6.181,0,0,0,.822.716A4.36,4.36,0,0,1,46.525,101.264Z" transform="translate(-42.897 -91.41)" fill="#f03c5a"/>
          <path id="Trazado_909752" data-name="Trazado 909752" d="M32,240H55.688v10.528H32Z" transform="translate(-31.334 -223.567)" fill="#f79cae"/>
          <path id="Trazado_909753" data-name="Trazado 909753" d="M48,240H70.372v10.528H48Z" transform="translate(-46.018 -223.567)" fill="#f66f7f"/>
          <path id="Trazado_909754" data-name="Trazado 909754" d="M96,272h13.16v5.264H96Z" transform="translate(-90.07 -252.935)" fill="#fff0eb"/>
          <path id="Trazado_909755" data-name="Trazado 909755" d="M292.514,272a3.985,3.985,0,0,1,2.212.658,1.939,1.939,0,0,0,2.155,0,3.921,3.921,0,0,1,2.212-.658c2.541,0,4.606,2.221,4.606,6.58s-2.722,9.212-5.264,9.212a2.105,2.105,0,0,1-1.382-.535,1.972,1.972,0,0,0-2.509,0,2.132,2.132,0,0,1-1.382.535c-2.541,0-5.264-4.853-5.264-9.212s2.064-6.58,4.606-6.58h0Z" transform="translate(-266.186 -252.932)" fill="#f66f7f"/>
          <path id="Trazado_909756" data-name="Trazado 909756" d="M318.476,278.58c0-4.359-2.064-6.58-4.606-6.58a3.986,3.986,0,0,0-2.212.658,1.939,1.939,0,0,1-2.155,0,3.8,3.8,0,0,0-1.546-.6c-2.237.354-3.956,2.55-3.956,6.522s2.27,8.365,4.6,9.1a2.45,2.45,0,0,0,.724-.419,1.972,1.972,0,0,1,2.509,0,2.131,2.131,0,0,0,1.382.535C315.753,287.792,318.476,282.939,318.476,278.58Z" transform="translate(-280.962 -252.935)" fill="#f03c5a"/>
          <path id="Trazado_909757" data-name="Trazado 909757" d="M55.688,99.948c-1.974,0-1.974,1.974-3.948,1.974s-1.974-1.974-3.948-1.974-1.974,1.974-3.948,1.974S41.87,99.948,39.9,99.948s-1.974,1.974-3.948,1.974S33.974,99.948,32,99.948L35.29,96H52.4Z" transform="translate(-31.334 -91.41)" fill="#ffdc46"/>
          <path id="Trazado_909758" data-name="Trazado 909758" d="M78,97.316,76.9,96H59.794L58.7,97.316H78Z" transform="translate(-55.838 -91.41)" fill="#efcd2d"/>
          <path id="Trazado_909759" data-name="Trazado 909759" d="M49.974,48H67.082a1.969,1.969,0,0,1,1.974,1.974h0a1.969,1.969,0,0,1-1.974,1.974H49.974A1.969,1.969,0,0,1,48,49.974h0A1.969,1.969,0,0,1,49.974,48Z" transform="translate(-46.018 -47.358)" fill="#ffe67b"/>
          <path id="Trazado_909760" data-name="Trazado 909760" d="M65.974,64a1.953,1.953,0,0,0-1.883,2.541,1.863,1.863,0,0,0,.568.09H81.766a1.953,1.953,0,0,0,1.883-2.541,1.863,1.863,0,0,0-.568-.09Z" transform="translate(-60.702 -62.04)" fill="#ffdc46"/>
          <path id="Trazado_909761" data-name="Trazado 909761" d="M101.818,264H88.658a.66.66,0,0,0-.658.658v5.264a.66.66,0,0,0,.658.658h13.16a.66.66,0,0,0,.658-.658v-5.264A.66.66,0,0,0,101.818,264Zm-.658,5.264H89.316v-3.948H101.16Z" transform="translate(-82.728 -245.593)"/>
          <path id="Trazado_909762" data-name="Trazado 909762" d="M56.808,58.606a4.909,4.909,0,0,0-.6.041,4.078,4.078,0,0,0,1.045-.74,5.816,5.816,0,0,0,1.357-3.989.65.65,0,0,0-.617-.617A5.726,5.726,0,0,0,54,54.658a4.523,4.523,0,0,0-1.127,2.056A5.5,5.5,0,0,0,51.19,55.39a.657.657,0,0,0-.584,1.176h0a4.071,4.071,0,0,1,2.163,2.788,4.576,4.576,0,0,0-2.525-.74,4.758,4.758,0,0,0-1.316.189V53.482a5.025,5.025,0,0,0-1.67-3.734A1.557,1.557,0,0,1,48.27,49.4a.66.66,0,0,0,.658-.658.645.645,0,0,0-.156-.419l-2.632-3.15A2.623,2.623,0,0,0,44.972,40.2H27.856a2.623,2.623,0,0,0-1.168,4.976l-2.632,3.15a.662.662,0,0,0,.5,1.086,1.6,1.6,0,0,1,1.012.345A5.025,5.025,0,0,0,23.9,53.49V69.808a5.929,5.929,0,0,0,5.922,5.922h13.16a5.921,5.921,0,0,0,4.507-2.106,4.53,4.53,0,0,0,3.389,2.106,2.758,2.758,0,0,0,1.8-.683,1.3,1.3,0,0,1,1.67,0,2.785,2.785,0,0,0,1.8.683c3.191,0,5.922-5.428,5.922-9.87s-2.838-7.238-5.264-7.238h0Zm-1.883-3.027a3.925,3.925,0,0,1,2.344-.946,3.231,3.231,0,0,1-3.282,3.29,3.925,3.925,0,0,1,.946-2.344h-.008Zm-.3,3.578a3.544,3.544,0,0,0-.387.214c-.041.016-.074.041-.115.058-.008-.066-.033-.132-.041-.2q.247-.025.543-.074ZM26.54,42.815A1.32,1.32,0,0,1,27.856,41.5H44.964a1.316,1.316,0,1,1,0,2.632H27.856A1.32,1.32,0,0,1,26.54,42.815Zm1.629,2.632H44.659l2.393,2.87a4.058,4.058,0,0,0-1.234.938,1.835,1.835,0,0,1-2.55.469,1.815,1.815,0,0,1-.469-.469,3.121,3.121,0,0,0-4.376-.51,3.321,3.321,0,0,0-.51.51,1.833,1.833,0,0,1-2.541.477,1.755,1.755,0,0,1-.477-.477,3.111,3.111,0,0,0-4.367-.51,2.992,2.992,0,0,0-.51.51,1.949,1.949,0,0,1-1.505.8,1.925,1.925,0,0,1-1.505-.8,4.058,4.058,0,0,0-1.234-.938l2.393-2.87Zm-2.944,8.027a3.7,3.7,0,0,1,1.324-2.838,2.85,2.85,0,0,0,1.966.732,3.216,3.216,0,0,0,2.435-1.176,1.826,1.826,0,0,1,3.019,0,3.111,3.111,0,0,0,4.367.51,2.992,2.992,0,0,0,.51-.51,1.834,1.834,0,0,1,2.55-.469,1.7,1.7,0,0,1,.469.469,3.193,3.193,0,0,0,2.443,1.176,2.882,2.882,0,0,0,1.966-.74A3.716,3.716,0,0,1,47.6,53.474v2.5H25.224Zm0,3.816H47.6v2.13c-1.472,1-2.632,3-2.632,6.424s.008.436.025.658H25.224ZM42.99,74.4H29.83a4.609,4.609,0,0,1-4.606-4.606V67.818H45.137a14.207,14.207,0,0,0,1.6,4.631A4.616,4.616,0,0,1,42.99,74.4Zm13.16,0a1.453,1.453,0,0,1-.962-.387,2.619,2.619,0,0,0-3.348,0,1.478,1.478,0,0,1-.962.387c-1.925,0-4.606-4.31-4.606-8.554s1.546-5.922,3.948-5.922a3.253,3.253,0,0,1,1.842.551,2.6,2.6,0,0,0,2.887,0,3.279,3.279,0,0,1,1.851-.551c2.435,0,3.948,2.27,3.948,5.922S58.066,74.4,56.141,74.4Z" transform="translate(-23.9 -40.199)"/>
        </g>
      </g>
    </g>
  </g>
</svg>
