<svg xmlns="http://www.w3.org/2000/svg" width="82" height="82" viewBox="0 0 82 82">
  <g id="Grupo_1116921" data-name="Grupo 1116921" transform="translate(-707.051 -3514)">
    <g id="Grupo_1116526" data-name="Grupo 1116526" transform="translate(696.899 3503.941)">
      <g id="Elipse_157" data-name="Elipse 157" transform="translate(15.151 15.059)" fill="#fff" stroke="#ffce79" stroke-linejoin="round" stroke-width="5">
        <circle cx="36" cy="36" r="36" stroke="none"/>
        <circle cx="36" cy="36" r="38.5" fill="none"/>
      </g>
    </g>
    <g id="sensorial" transform="translate(725.051 3528.2)">
      <g id="Layer_1" transform="translate(0 4.8)">
        <g id="Grupo_1116920" data-name="Grupo 1116920" transform="translate(0 0)">
          <circle id="Elipse_12326" data-name="Elipse 12326" cx="6.281" cy="6.281" r="6.281" transform="translate(16.228 15.177)" fill="#02c7dd"/>
          <path id="Trazado_909763" data-name="Trazado 909763" d="M160.3,17.358a3.205,3.205,0,0,0,.791,1.393,9.886,9.886,0,0,0,7.323,3.765,10.2,10.2,0,0,0,7.467-3.954,2.782,2.782,0,0,0,.647-1.2,2.782,2.782,0,0,0-.647-1.2,9.94,9.94,0,0,0-7.467-3.954,9.638,9.638,0,0,0-7.323,3.765A3.3,3.3,0,0,0,160.3,17.358Z" transform="translate(-145.896 -11.535)" fill="#dcf5f8"/>
          <path id="Trazado_909764" data-name="Trazado 909764" d="M212.1,17.064a10.308,10.308,0,0,0-6.254-3.864,10.912,10.912,0,0,1,3.558,2.965,2.782,2.782,0,0,1,.647,1.2,2.782,2.782,0,0,1-.647,1.2,9.94,9.94,0,0,1-7.467,3.954c-3.531,0-.827-.036-1.222-.1a8.549,8.549,0,0,0,3.918,1,9.94,9.94,0,0,0,7.467-3.954,2.782,2.782,0,0,0,.647-1.2,2.782,2.782,0,0,0-.647-1.2Z" transform="translate(-182.118 -12.445)" fill="#a6e7f0"/>
          <circle id="Elipse_12327" data-name="Elipse 12327" cx="2.21" cy="2.21" r="2.21" transform="translate(20.299 3.612)" fill="#017297"/>
          <path id="Trazado_909765" data-name="Trazado 909765" d="M380.837,142.265a3.791,3.791,0,0,0-1.563-2,3.346,3.346,0,0,1-1.555-2.408l-.422-3.361a2.5,2.5,0,0,0-2.489-2.193h0a2.512,2.512,0,0,0-2.489,2.193l-.422,3.361a3.372,3.372,0,0,1-1.555,2.408,3.791,3.791,0,0,0-1.564,2h0a1.387,1.387,0,0,0,1.321,1.824h1.348a2.315,2.315,0,0,1,1.851.926h0a1.9,1.9,0,0,0,3.037,0h0a2.315,2.315,0,0,1,1.851-.926h1.348a1.391,1.391,0,0,0,1.321-1.824h-.018Z" transform="translate(-335.576 -120.843)" fill="#ffe5c2"/>
          <path id="Trazado_909766" data-name="Trazado 909766" d="M308.583,365.326h0A4.263,4.263,0,0,1,304.4,361.9l-1.393-6.946a2.416,2.416,0,0,1,.665-2.193h0a2.435,2.435,0,0,1,3.064-.306h0a3.317,3.317,0,0,0,3.666,0h0a2.424,2.424,0,0,1,3.064.306h0a2.423,2.423,0,0,1,.665,2.193l-1.393,6.946a4.254,4.254,0,0,1-4.178,3.424Z" transform="translate(-275.741 -320.847)" fill="#f79595"/>
          <path id="Trazado_909767" data-name="Trazado 909767" d="M333.636,352.81h0a2.447,2.447,0,0,0-1.617-.71,2.416,2.416,0,0,1,.036,1.105l-1.393,6.946a4.254,4.254,0,0,1-4.178,3.424h0a4.181,4.181,0,0,1-1.384-.234,4.256,4.256,0,0,0,3.63,2.031h0a4.263,4.263,0,0,0,4.178-3.424L334.3,355A2.416,2.416,0,0,0,333.636,352.81Z" transform="translate(-295.887 -320.893)" fill="#f37c7c"/>
          <path id="Trazado_909768" data-name="Trazado 909768" d="M7.409,130.185a3.656,3.656,0,0,0,7.305.225v-.117a6.437,6.437,0,0,1,1.644-4.035,5.068,5.068,0,0,0,1.276-3.639A5.121,5.121,0,0,0,7.4,122.87v7.314Z" transform="translate(-6.735 -107.604)" fill="#ffdfcf"/>
          <path id="Trazado_909769" data-name="Trazado 909769" d="M81.5,343.809H77.527a1.584,1.584,0,0,0-1.581,1.582v2.857a1.584,1.584,0,0,0-2.228,0l-.638.638a.8.8,0,0,0,0,1.123l4.08,4.079h0l.018.018a1.41,1.41,0,0,1,.413.988v1.833a.479.479,0,0,0,.476.476h3.963a.479.479,0,0,0,.476-.476V355.1a1.4,1.4,0,0,1,.431-1.015,4.1,4.1,0,0,0,1.213-2.911v-4.735a2.64,2.64,0,0,0-2.642-2.642Z" transform="translate(-66.304 -313.338)" fill="#eb9c8d"/>
          <path id="Trazado_909770" data-name="Trazado 909770" d="M224.895,158.1h0a2.534,2.534,0,0,0-2.516,2.777c.117,1.186.09.935.216,2.121a2.311,2.311,0,0,0,2.3,2.085h0a2.311,2.311,0,0,0,2.3-2.085c.072-.674.153-1.528.216-2.121A2.524,2.524,0,0,0,224.895,158.1Z" transform="translate(-202.385 -144.325)" fill="#017297"/>
          <path id="Trazado_909771" data-name="Trazado 909771" d="M202.82,271.178h-9.471a.445.445,0,0,1-.449-.449V269.39a2.389,2.389,0,0,1,2.39-2.39h5.58a2.389,2.389,0,0,1,2.39,2.39v1.339a.445.445,0,0,1-.449.449Z" transform="translate(-175.567 -243.439)" fill="#017297"/>
          <path id="Trazado_909772" data-name="Trazado 909772" d="M221.284,43.269a2.884,2.884,0,1,1,2.884-2.884A2.888,2.888,0,0,1,221.284,43.269Zm0-4.421a1.537,1.537,0,1,0,1.537,1.537A1.542,1.542,0,0,0,221.284,38.848Z" transform="translate(-198.775 -34.562)"/>
          <path id="Trazado_909773" data-name="Trazado 909773" d="M367.911,139.535h0a2.554,2.554,0,0,1-2.058-1.033,1.638,1.638,0,0,0-1.312-.656h-1.348a2.064,2.064,0,0,1-1.959-2.714,4.478,4.478,0,0,1,1.842-2.354,2.682,2.682,0,0,0,1.249-1.932l.422-3.361a3.178,3.178,0,0,1,6.308,0l.422,3.361a2.727,2.727,0,0,0,1.249,1.932,4.477,4.477,0,0,1,1.842,2.354h0a2.064,2.064,0,0,1-1.959,2.714h-1.348a1.651,1.651,0,0,0-1.312.656,2.554,2.554,0,0,1-2.058,1.033Zm0-13.488a1.826,1.826,0,0,0-1.815,1.608l-.422,3.361a4.021,4.021,0,0,1-1.86,2.893,3.149,3.149,0,0,0-1.285,1.644.72.72,0,0,0,.1.647.711.711,0,0,0,.584.3h1.348a3.018,3.018,0,0,1,2.39,1.2,1.218,1.218,0,0,0,1.959,0,3,3,0,0,1,2.39-1.2h1.348a.7.7,0,0,0,.575-.3.72.72,0,0,0,.1-.647,3.114,3.114,0,0,0-1.285-1.644,4.039,4.039,0,0,1-1.86-2.893l-.422-3.361a1.84,1.84,0,0,0-1.815-1.608Z" transform="translate(-328.679 -113.926)"/>
          <path id="Trazado_909774" data-name="Trazado 909774" d="M301.714,359.237a4.962,4.962,0,0,1-4.843-3.963l-1.393-6.946a3.1,3.1,0,0,1,4.762-3.19,2.619,2.619,0,0,0,2.92,0,3.1,3.1,0,0,1,4.762,3.19l-1.393,6.946a4.945,4.945,0,0,1-4.843,3.963Zm-3.181-13.272a1.718,1.718,0,0,0-1.24.512,1.754,1.754,0,0,0-.476,1.59l1.393,6.946a3.582,3.582,0,0,0,7.027,0l1.393-6.946a1.753,1.753,0,0,0-2.7-1.806,3.962,3.962,0,0,1-4.421,0,1.757,1.757,0,0,0-.97-.3Z" transform="translate(-268.871 -314.084)"/>
          <path id="Trazado_909775" data-name="Trazado 909775" d="M358.674,364.3a.679.679,0,0,1-.674-.674v-7.656a.674.674,0,1,1,1.348,0v7.656A.679.679,0,0,1,358.674,364.3Z" transform="translate(-325.831 -323.805)"/>
          <path id="Trazado_909776" data-name="Trazado 909776" d="M4.322,127.593a4.243,4.243,0,0,1-2.947-1.168A4.357,4.357,0,0,1,0,123.253v-7.314a5.789,5.789,0,0,1,6.029-5.787,5.8,5.8,0,0,1,4.1,9.633,5.7,5.7,0,0,0-1.474,3.6v.135a4.317,4.317,0,0,1-4.017,4.053c-.108,0-.207.009-.315.009ZM5.8,111.5a4.446,4.446,0,0,0-4.448,4.448v7.314a2.981,2.981,0,0,0,5.958.18v-.09A7.057,7.057,0,0,1,9.121,118.9a4.442,4.442,0,0,0-3.145-7.386H5.787Z" transform="translate(0 -100.681)"/>
          <path id="Trazado_909777" data-name="Trazado 909777" d="M34.184,154.447a1.381,1.381,0,0,1-1.384-1.384v-1.914a1.806,1.806,0,0,1,.539-1.3l.018-.018a.5.5,0,0,0,0-.7l-.018-.018a1.821,1.821,0,0,1-.539-1.3v-2.058a2.847,2.847,0,0,1,2.839-2.848h.117a2.838,2.838,0,0,1,2.013,4.718.675.675,0,0,1-1.006-.9,1.459,1.459,0,0,0,.368-1.069,1.507,1.507,0,0,0-1.429-1.42h-.063a1.5,1.5,0,0,0-1.492,1.5v2.058a.5.5,0,0,0,.144.35l.018.018a1.844,1.844,0,0,1,0,2.606l-.018.018a.5.5,0,0,0-.144.35v1.914a.069.069,0,0,0,.009.027c.009.018.018.009.027.009a.674.674,0,0,1,0,1.348Z" transform="translate(-29.853 -130.491)"/>
          <path id="Trazado_909778" data-name="Trazado 909778" d="M75.057,351.343H71.095a1.152,1.152,0,0,1-1.15-1.15V348.36a.736.736,0,0,0-.216-.512h0l-.018-.018-4.08-4.08a1.456,1.456,0,0,1-.431-1.033,1.44,1.44,0,0,1,.431-1.033l.638-.638a2.277,2.277,0,0,1,2.031-.62v-1.77a2.263,2.263,0,0,1,2.255-2.255h3.972a3.319,3.319,0,0,1,3.316,3.316v1.1a.674.674,0,0,1-1.348,0v-1.1a1.967,1.967,0,0,0-1.968-1.968H70.555a.905.905,0,0,0-.908.908v2.857a.666.666,0,0,1-.413.62.68.68,0,0,1-.737-.144.917.917,0,0,0-1.285,0l-.638.638a.125.125,0,0,0-.036.081.092.092,0,0,0,.036.081l4.053,4.053.018.018.018.018a2.1,2.1,0,0,1,.611,1.474v1.635h3.567V348.36a2.073,2.073,0,0,1,.629-1.492,3.384,3.384,0,0,0,1.015-2.426v-.5a.674.674,0,1,1,1.348,0v.5a4.736,4.736,0,0,1-1.411,3.388.754.754,0,0,0-.225.539v1.824a1.152,1.152,0,0,1-1.15,1.15Z" transform="translate(-59.341 -306.603)"/>
          <path id="Trazado_909779" data-name="Trazado 909779" d="M105.149,390.259a.682.682,0,0,1-.647-.476.965.965,0,0,0-.926-.683c-.431,0-.135,0-.207.018a1.821,1.821,0,0,1-1.7-.494l-1.851-1.851a.673.673,0,1,1,.952-.952l1.851,1.851a.5.5,0,0,0,.458.126,2.251,2.251,0,0,1,.494-.054,2.294,2.294,0,0,1,2.21,1.635.674.674,0,0,1-.449.845.747.747,0,0,1-.2.027Z" transform="translate(-90.673 -351.405)"/>
          <path id="Trazado_909780" data-name="Trazado 909780" d="M128.774,344.3a.679.679,0,0,1-.674-.674v-2.947a.674.674,0,0,1,1.348,0v2.947A.679.679,0,0,1,128.774,344.3Z" transform="translate(-116.589 -309.88)"/>
          <path id="Trazado_909781" data-name="Trazado 909781" d="M218.03,159.021a2.978,2.978,0,0,1-2.974-2.687l-.216-2.121a3.2,3.2,0,1,1,6.362,0l-.216,2.121a2.971,2.971,0,0,1-2.974,2.687Zm0-6.982a1.833,1.833,0,0,0-1.375.611,1.814,1.814,0,0,0-.467,1.429l.216,2.121a1.644,1.644,0,0,0,3.271,0l.216-2.121a1.851,1.851,0,0,0-1.842-2.04Z" transform="translate(-195.521 -137.59)"/>
          <path id="Trazado_909782" data-name="Trazado 909782" d="M195.994,265.026h-9.471A1.124,1.124,0,0,1,185.4,263.9v-1.339a3.068,3.068,0,0,1,3.064-3.064h5.58a3.068,3.068,0,0,1,3.064,3.064V263.9a1.124,1.124,0,0,1-1.123,1.123Zm-9.255-1.348h9.022v-1.114a1.716,1.716,0,0,0-1.716-1.716h-5.58a1.716,1.716,0,0,0-1.716,1.716v1.114Z" transform="translate(-168.74 -236.613)"/>
          <path id="Trazado_909783" data-name="Trazado 909783" d="M161.488,16.463a10.545,10.545,0,0,1-7.845-4.017,3.662,3.662,0,0,1-.943-1.815,3.662,3.662,0,0,1,.943-1.815.671.671,0,0,1,1.042.845,4.28,4.28,0,0,0-.629.97,4.28,4.28,0,0,0,.629.97,9.177,9.177,0,0,0,6.793,3.513,9.445,9.445,0,0,0,6.928-3.684,3.632,3.632,0,0,0,.494-.8,3.632,3.632,0,0,0-.494-.8,9.232,9.232,0,0,0-6.928-3.684c-3.046,0-3.594.827-4.61,1.519a.673.673,0,0,1-.755-1.114A9.535,9.535,0,0,1,161.479,4.8a10.624,10.624,0,0,1,8.006,4.223,3.068,3.068,0,0,1,.782,1.617,3.068,3.068,0,0,1-.782,1.617,10.624,10.624,0,0,1-8.006,4.223Zm-7.44-5.787Zm0-.1Z" transform="translate(-138.979 -4.8)"/>
          <path id="Trazado_909784" data-name="Trazado 909784" d="M175.087,182.478a.661.661,0,0,1-.539-.279,6.964,6.964,0,0,1,2.9-10.531.673.673,0,1,1,.521,1.24,5.61,5.61,0,0,0-3.424,5.167c0,2.255.377,2.354,1.087,3.325a.676.676,0,0,1-.144.944.657.657,0,0,1-.4.135Z" transform="translate(-157.637 -156.626)"/>
          <path id="Trazado_909785" data-name="Trazado 909785" d="M273.064,174.491a.681.681,0,0,1-.485-.207,5.6,5.6,0,0,0-1.851-1.276.673.673,0,0,1,.521-1.24,6.883,6.883,0,0,1,2.3,1.581.674.674,0,0,1-.485,1.141Z" transform="translate(-246.026 -156.717)"/>
          <path id="Trazado_909786" data-name="Trazado 909786" d="M300.043,225.125a.657.657,0,0,1-.4-.135.684.684,0,0,1-.144-.944,5.578,5.578,0,0,0,1.087-3.325,2.766,2.766,0,0,0-.18-1.411.672.672,0,0,1,1.3-.332,7.151,7.151,0,0,1,.225,1.752,6.949,6.949,0,0,1-1.348,4.124.673.673,0,0,1-.539.279Z" transform="translate(-272.475 -199.273)"/>
          <path id="Trazado_909787" data-name="Trazado 909787" d="M155.974,344.3a.679.679,0,0,1-.674-.674v-2.947a.674.674,0,0,1,1.348,0v2.947A.679.679,0,0,1,155.974,344.3Z" transform="translate(-141.345 -309.88)"/>
        </g>
      </g>
    </g>
  </g>
</svg>
