<svg xmlns="http://www.w3.org/2000/svg" width="82" height="82" viewBox="0 0 82 82">
  <g id="Grupo_1116922" data-name="Grupo 1116922" transform="translate(7322 8096.001)">
    <g id="Grupo_1116527" data-name="Grupo 1116527" transform="translate(-7332.151 -8106.059)">
      <g id="Elipse_157" data-name="Elipse 157" transform="translate(15.151 15.059)" fill="#fff" stroke="#ffce79" stroke-linejoin="round" stroke-width="5">
        <circle cx="36" cy="36" r="36" stroke="none"/>
        <circle cx="36" cy="36" r="38.5" fill="none"/>
      </g>
    </g>
    <g id="conservas" transform="translate(-7323.805 -8113.718)">
      <g id="Capa_1" transform="translate(23.961 40)">
        <g id="Filled_Expand" transform="translate(0 0)">
          <path id="Trazado_909788" data-name="Trazado 909788" d="M48,80H68.811v30.209H48Z" transform="translate(-45.983 -76.643)" fill="#80a456"/>
          <path id="Trazado_909789" data-name="Trazado 909789" d="M64,80H83.468v30.209H64Z" transform="translate(-60.64 -76.643)" fill="#73964a"/>
          <path id="Trazado_909790" data-name="Trazado 909790" d="M64,80H83.468v2.014H64Z" transform="translate(-60.64 -76.643)" fill="#64873b"/>
          <path id="Trazado_909791" data-name="Trazado 909791" d="M48,80h1.343v2.014H48Z" transform="translate(-45.983 -76.643)" fill="#80a456"/>
          <path id="Trazado_909792" data-name="Trazado 909792" d="M33.678,48H53.818A1.683,1.683,0,0,1,55.5,49.678h0a1.683,1.683,0,0,1-1.678,1.678H33.678A1.683,1.683,0,0,1,32,49.678h0A1.683,1.683,0,0,1,33.678,48Z" transform="translate(-31.325 -47.329)" fill="#d8dde4"/>
          <path id="Trazado_909793" data-name="Trazado 909793" d="M49.678,64A1.671,1.671,0,0,0,48,65.645a1.519,1.519,0,0,0,.034.336,1.85,1.85,0,0,0,.3.034H68.475a1.671,1.671,0,0,0,1.678-1.645,1.519,1.519,0,0,0-.034-.336,1.848,1.848,0,0,0-.3-.034Z" transform="translate(-45.983 -61.986)" fill="#c9d0d9"/>
          <path id="Trazado_909794" data-name="Trazado 909794" d="M33.678,432H53.818a1.683,1.683,0,0,1,1.678,1.678h0a1.683,1.683,0,0,1-1.678,1.678H33.678A1.683,1.683,0,0,1,32,433.678h0A1.683,1.683,0,0,1,33.678,432Z" transform="translate(-31.325 -399.106)" fill="#d8dde4"/>
          <path id="Trazado_909795" data-name="Trazado 909795" d="M49.678,448A1.671,1.671,0,0,0,48,449.645a1.519,1.519,0,0,0,.034.336,1.852,1.852,0,0,0,.3.034H68.475a1.671,1.671,0,0,0,1.678-1.645,1.52,1.52,0,0,0-.034-.336,1.849,1.849,0,0,0-.3-.034Z" transform="translate(-45.983 -413.763)" fill="#c9d0d9"/>
          <path id="Trazado_909796" data-name="Trazado 909796" d="M117.035,168h0a5.039,5.039,0,0,1,5.035,5.035v5.37a5.039,5.039,0,0,1-5.035,5.035h0A5.039,5.039,0,0,1,112,178.405v-5.37A5.039,5.039,0,0,1,117.035,168Z" transform="translate(-104.612 -157.259)" fill="#fff0eb"/>
          <path id="Trazado_909797" data-name="Trazado 909797" d="M168,352h25.51v7.384H168Z" transform="translate(-155.913 -325.819)" fill="#ffe0a9"/>
          <path id="Trazado_909798" data-name="Trazado 909798" d="M168,264h25.51v7.384H168Z" transform="translate(-155.913 -245.203)" fill="#a75833"/>
          <path id="Trazado_909799" data-name="Trazado 909799" d="M406.741,188.028h-4.7l-.537-3.247a.668.668,0,0,1,.554-.772c.034,0,.076-.008.109-.008h4.456a.673.673,0,0,1,.671.671.477.477,0,0,1-.008.109l-.537,3.247Z" transform="translate(-369.816 -171.916)" fill="#798a9f"/>
          <path id="Trazado_909800" data-name="Trazado 909800" d="M184,352h24.167v7.384H184Z" transform="translate(-170.571 -325.819)" fill="#ffce79"/>
          <path id="Trazado_909801" data-name="Trazado 909801" d="M184,264h24.167v7.384H184Z" transform="translate(-170.571 -245.203)" fill="#8c492a"/>
          <circle id="Elipse_12328" data-name="Elipse 12328" cx="4.028" cy="4.028" r="4.028" transform="translate(20.814 22.153)" fill="#fff0eb"/>
          <path id="Trazado_909802" data-name="Trazado 909802" d="M153.678,232h24.838a1.683,1.683,0,0,1,1.678,1.678h0a1.683,1.683,0,0,1-1.678,1.678H153.678A1.683,1.683,0,0,1,152,233.678h0A1.683,1.683,0,0,1,153.678,232Z" transform="translate(-141.256 -215.889)" fill="#d8dde4"/>
          <path id="Trazado_909803" data-name="Trazado 909803" d="M169.678,248A1.671,1.671,0,0,0,168,249.645a1.518,1.518,0,0,0,.034.336,1.85,1.85,0,0,0,.3.034h24.838a1.671,1.671,0,0,0,1.678-1.645,1.52,1.52,0,0,0-.034-.336,1.849,1.849,0,0,0-.3-.034Z" transform="translate(-155.913 -230.546)" fill="#c9d0d9"/>
          <path id="Trazado_909804" data-name="Trazado 909804" d="M153.678,432h24.838a1.683,1.683,0,0,1,1.678,1.678h0a1.683,1.683,0,0,1-1.678,1.678H153.678A1.683,1.683,0,0,1,152,433.678h0A1.683,1.683,0,0,1,153.678,432Z" transform="translate(-141.256 -399.106)" fill="#d8dde4"/>
          <path id="Trazado_909805" data-name="Trazado 909805" d="M169.678,448A1.671,1.671,0,0,0,168,449.645a1.519,1.519,0,0,0,.034.336,1.853,1.853,0,0,0,.3.034h24.838a1.671,1.671,0,0,0,1.678-1.645,1.52,1.52,0,0,0-.034-.336,1.849,1.849,0,0,0-.3-.034Z" transform="translate(-155.913 -413.763)" fill="#c9d0d9"/>
          <path id="Trazado_909806" data-name="Trazado 909806" d="M62.229,72.458V59.9a2.345,2.345,0,0,0-.562-4.422l.42-2.509a1.335,1.335,0,0,0-1.1-1.544,2.066,2.066,0,0,0-.218-.017H56.313a1.347,1.347,0,0,0-1.343,1.343.921.921,0,0,0,.017.218L55.4,55.44H47.46V44.464A2.345,2.345,0,0,0,46.453,40H26.314a2.345,2.345,0,0,0-1.007,4.464V72.458a2.343,2.343,0,0,0,1.007,4.464H61.222a2.345,2.345,0,0,0,1.007-4.464Zm-1.46-19.7-.445,2.685H56.766l-.445-2.685h4.447Zm.453,4.028a1.007,1.007,0,1,1,0,2.014H36.384a1.007,1.007,0,1,1,0-2.014ZM48.8,70.88a4.7,4.7,0,0,0,4.649-4.028h7.435v5.37H36.719v-5.37h7.435A4.712,4.712,0,0,0,48.8,70.88Zm-3.357-4.7A3.357,3.357,0,1,1,48.8,69.538,3.356,3.356,0,0,1,45.446,66.181Zm8.005-.671a4.692,4.692,0,0,0-9.289,0H36.728v-5.37H60.895v5.37H53.452ZM35.377,59.9v5.48a4.37,4.37,0,0,1-3.357-4.238v-5.37a4.363,4.363,0,0,1,8.71-.336H36.384A2.345,2.345,0,0,0,35.377,59.9Zm0,6.847v5.471H26.65V44.7H46.118V55.44H42.073a5.7,5.7,0,0,0-11.4.336v5.37a5.7,5.7,0,0,0,4.7,5.605ZM26.314,41.343H46.453a1.007,1.007,0,0,1,0,2.014H26.314a1.007,1.007,0,0,1,0-2.014Zm7.955,34.237H26.314a1.007,1.007,0,0,1,0-2.014h7.955A2.294,2.294,0,0,0,34.269,75.579Zm26.953,0H36.384a1.007,1.007,0,1,1,0-2.014H61.222a1.007,1.007,0,1,1,0,2.014Z" transform="translate(-23.961 -40)"/>
        </g>
      </g>
    </g>
  </g>
</svg>
